<?xml version="1.0" encoding="utf-8" ?>
<svg xmlns="http://www.w3.org/2000/svg" xmlns:xlink="http://www.w3.org/1999/xlink" width="1024" height="1024">
	<path fill="#EDFFDC" d="M0 11.375L-0 -0L5.375 0L5.73047 0L25.9747 0L26.6179 0L62.0711 0L62.5467 0L69.1256 0L90.5172 0L99.0688 0L126.016 0L126.473 0L134.881 0L154.872 0L163.085 0L190.524 0L198.8 0L218.944 0L254.4 0L261.297 0L263.074 0L282.872 0L291.258 0L318.896 0L327.703 0L353.5 0L382.814 0L391.965 0L418.125 0L419.35 0L446.524 0L455.778 0L482.951 0L510.952 0L520.328 0L538.995 0L539.624 0L574.457 0L583.674 0L611.5 0L638.971 0L647.405 0L675.529 0L703.066 0L712.07 0L736.549 0L766.965 0L774.863 0L794.995 0L803.609 0L830.625 0L831.109 0L838.875 0L839.23 0L859.139 0L859.664 0L894.945 0L902.884 0L922.49 0L923.122 0L958.552 0L965.764 0L987.552 0L1022.5 0L1023.98 0.273438L1024 26.1257L1024 28.5314L1024 35.9762L1024 60.8823L1024 64.875L1024 65.3594L1024 92.193L1024 93.9237L1024 99.9965L1024 125.048L1024 128.383L1024 128.86L1024 156.625L1024 157.719L1024 163.812L1024 190.033L1024 193.628L1024 220.429L1024 221.192L1024 227.553L1024 253.597L1024 256.875L1024 257.359L1024 284.641L1024 285.125L1024 291.978L1024 317.86L1024 320.875L1024 321.359L1024 349.434L1024 356.008L1024 382.267L1024 385.63L1024 413.625L1024 413.929L1024 419.788L1024 445.517L1024 449.073L1024 477.375L1024 477.985L1024 483.695L1024 510.042L1024 512.62L1024 540.625L1024 541.109L1024 547.984L1024 574.422L1024 577.381L1024 605.625L1024 605.9L1024 612.043L1024 638.346L1024 639.812L1024 668.589L1024 670.139L1024 676.26L1024 703.875L1024 704.23L1024 733.567L1024 734.334L1024 740.373L1024 766.528L1024 768.154L1024 796.198L1024 797.953L1024 804.011L1024 830.755L1024 832.274L1024 860.628L1024 862.225L1024 868.363L1024 895.842L1024 924.682L1024 926.056L1024 932.023L1024 959.589L1024 960.08L1024 988.152L1024 990.273L1024 996.606L1024 1023L1023.44 1023.94L735.909 1024L735.518 1024L0.273438 1023.98L0 1022.5L0 1017.85L0 996.966L-0 990.439L0 960.024L0 932.002L-0 925.884L0 896.047L0 867.508L-0 861.923L0 832.584L0 804.468L-0 798.909L0 768.677L0 740.923L-0 734.366L0 704.48L0 676.005L0 670.466L-0 666.234L0 640.19L0 612.012L-0 605.947L0 576.69L0 547.999L-0 541.589L0 513.053L0 484.071L-0 478.234L0 449.07L0 419.967L-0 413.918L0 385.375L0 356.273L-0 350.604L0 321.246L0 291.999L-0 286.466L0 257.234L0 227.976L-0 221.635L0 193.27L0 163.993L-0 158.106L0 129.358L0 100.088L-0 93.9952L0 65.5307L0 35.4837L0 27.5309L0 16.9455L-0 14.3155L0 11.375Z"/>
	<path fill="#2EFFED" d="M349.979 1013.56L354.986 1013.43L355.599 1015.25C354.718 1016.23 353.87 1016.17 352.621 1016.46C351.986 1016.14 351.235 1016.17 350.535 1016.1L348.046 1015.25L348.097 1014.25L349.979 1013.56Z"/>
	<path fill="#2EFFED" d="M289.917 1013.35L290.71 1013.55L291.486 1014.5L291.25 1015.5C290.475 1015.93 289.95 1016.09 289.069 1016.19L286.076 1016.04C284.894 1015.55 284.622 1015.59 283.998 1014.5L284.75 1013.54L289.917 1013.35Z"/>
	<path fill="#88F5DE" d="M158.64 1016.55L161.579 1016.59C162.204 1018.28 162.645 1019.81 162.932 1021.59C161.438 1021.76 160.032 1021.71 158.532 1021.62L158.64 1016.55Z"/>
	<path fill="#88F5DE" d="M542.422 1021.53C542.587 1019.9 542.65 1018.61 543.75 1017.37L546.731 1017.55L546.481 1021.44C545.387 1022.44 545.183 1022.72 543.75 1023L542.422 1021.53Z"/>
	<path fill="#2EFFED" d="M604.419 1013.17L607.123 1013.08L607.636 1013.22C609.326 1013.61 611.305 1013.07 612.342 1014.5C611.321 1015.66 610.87 1015.62 609.407 1015.98L606.684 1015.76C605.273 1015.3 604.281 1015.35 603.547 1014L604.419 1013.17Z"/>
	<path fill="#88F5DE" d="M350.535 1016.1C351.235 1016.17 351.986 1016.14 352.621 1016.46C353.548 1018.22 354.127 1019.57 354.403 1021.55C352.57 1022.4 352.329 1022.42 350.412 1021.76L350.535 1016.1Z"/>
	<path fill="#88F5DE" d="M286.076 1016.04L289.069 1016.19C289.387 1018.03 289.598 1019.74 289.596 1021.61C288.998 1022.34 288.653 1022.52 287.75 1022.79L286.009 1021.52C286.235 1019.68 286.819 1017.82 286.076 1016.04Z"/>
	<path fill="#2EFFED" d="M476.975 1013.02L481.549 1013.09L482.973 1013.55C483.406 1014.78 483.426 1014.68 482.867 1015.86L481.023 1016.1L478.559 1016.07C477.527 1015.76 476.654 1015.5 475.75 1014.9L475.664 1014L476.975 1013.02Z"/>
	<path fill="#88F5DE" d="M606.684 1015.76L609.407 1015.98L610.026 1021.67L609.064 1022.25C607.325 1022.25 607.279 1022.21 605.887 1021.16L606.684 1015.76Z"/>
	<path fill="#2EFFED" d="M800.444 1012.26L802.95 1013.06L803.539 1014.24L802.951 1015.52C801.243 1015.45 799.691 1015.55 798.002 1015.81C796.428 1015.33 795.527 1015.35 794.536 1014C795.491 1013.04 796.08 1013.08 797.343 1012.77L800.444 1012.26Z"/>
	<path fill="#2EFFED" d="M863.381 1013.04L864.318 1013.07C865.623 1013.36 866.943 1013.46 867.879 1014.5C867.251 1015.66 866.92 1015.63 865.802 1016.23C864.13 1016.69 863.612 1017.06 861.951 1016.45C860.628 1014.97 859.247 1016.09 857.75 1014.79L858.5 1014.01L863.381 1013.04Z"/>
	<path fill="#2EFFED" d="M28.7287 1013.04L34.4188 1013.07L36.25 1013.98L36.25 1014.82L34.4542 1015.94C32.9169 1016.4 32.1628 1016.57 30.5783 1016C29.3791 1015.53 28.0091 1015.37 26.75 1015.04L26.75 1014.11L28.7287 1013.04Z"/>
	<path fill="#88F5DE" d="M861.951 1016.45C863.612 1017.06 864.13 1016.69 865.802 1016.23L866.349 1021.76L865.25 1022.68C863.832 1022.68 863.155 1022.36 861.918 1021.76L861.951 1016.45Z"/>
	<path fill="#88F5DE" d="M478.559 1016.07L481.023 1016.1L480.849 1017.04C482.017 1018.67 482.434 1018.95 482.485 1021.01C481.29 1022.18 480.825 1022.86 479.19 1023.3C478.738 1022.77 478.24 1022.26 477.888 1021.66L478.559 1016.07Z"/>
	<path fill="#88F5DE" d="M990.081 1016.12L992.993 1016.05C992.837 1017.88 993.823 1017.38 994.275 1018.75C994.52 1019.49 994.411 1020.88 994.464 1021.7L993.473 1022.23C991.866 1022.87 991.413 1022.45 989.903 1021.88L990.081 1016.12Z"/>
	<path fill="#2EFFED" d="M162.841 1012.44L163.103 1015.5L161.579 1016.59L158.64 1016.55C157.864 1016.2 156.956 1016 156.137 1015.75C155.532 1014.53 155.716 1014.5 156.128 1013.18L162.841 1012.44Z"/>
	<path fill="#2EFFED" d="M992.039 1012.49C993.818 1012.89 994.632 1012.69 995.666 1014.25L995.415 1015.48C994.532 1015.9 993.967 1016.03 992.993 1016.05L990.081 1016.12C988.754 1015.85 987.516 1015.75 986.522 1014.75L986.962 1013.75L988.893 1013.22L992.039 1012.49Z"/>
	<path fill="#88F5DE" d="M413.935 1016.58C415.275 1016.4 416.38 1016.28 417.732 1016.52L418.024 1021.5C416.979 1022.75 417.092 1022.84 415.5 1023.02L413.957 1021.56L413.935 1016.58Z"/>
	<path fill="#88F5DE" d="M30.5783 1016C32.1628 1016.57 32.9169 1016.4 34.4542 1015.94L34.3199 1021.74C32.4202 1022.45 32.0215 1022.45 29.9441 1022.15L30.5783 1016Z"/>
	<path fill="#A3F7E3" d="M829.57 735.994C831.195 735.4 831.74 735.666 833.334 736.074L833.579 736.442C833.508 738.556 834.085 742.168 832.242 743.508L830.585 744.285C830.395 741.698 830.2 739.052 829.551 736.536L829.57 735.994Z"/>
	<path fill="#88F5DE" d="M798.002 1015.81C799.691 1015.55 801.243 1015.45 802.951 1015.52L800.904 1016.25C800.979 1017.4 800.806 1016.65 801.323 1017.58C801.931 1018.68 801.894 1019.79 801.951 1021.01L800.25 1023.33C798.856 1023.23 798.928 1023.05 797.976 1022L798.002 1015.81Z"/>
	<path fill="#2EFFED" d="M412.916 1012.91C414.839 1012.31 416.12 1011.76 418.083 1012.39L418.48 1012.5C419.355 1013.29 419.905 1013.75 420.539 1014.75C419.801 1015.99 419.026 1016.01 417.732 1016.52C416.38 1016.28 415.275 1016.4 413.935 1016.58C412.919 1016.22 412.129 1015.93 411.282 1015.25L411.601 1013.75L412.916 1012.91Z"/>
	<path fill="#88F5DE" d="M1024 449.073L1024 477.375C1023.17 476.545 1023.11 476.278 1022.94 475.141C1022.45 471.787 1022.88 467.901 1022.89 464.492L1022.63 448.913L1024 449.073Z"/>
	<path fill="#88F5DE" d="M575.59 129.597C576.959 129.652 578.212 129.593 579.507 130.077C579.679 131.149 579.737 132.165 579.759 133.25C578.743 134.862 577.686 135.102 576 135.934C572.803 134.681 575.427 134.422 573.755 132.75L573.361 134.662C573.264 133.251 572.897 131.545 573.558 130.25L575.59 129.597Z"/>
	<path fill="#A3F7E3" d="M444.431 139.671L444.476 129.364L454.624 129.563C455.238 133.216 452.668 136.099 450.75 139.037C450.517 137.838 450.354 138.096 451 137L451.398 136.227C452.585 134.023 454.073 133.424 453.875 130.625C452.485 129.777 451.452 129.982 449.915 130.134L449.45 130.825C448.454 132.255 447.315 132.764 445.741 133.342C445.378 135.586 445.43 137.863 445.4 140.132L445.099 140.263L444.431 139.671Z"/>
	<path fill="#88F5DE" d="M1022.5 0L1023.98 0.273438L1024 26.1257C1022.04 23.9832 1022.6 20.3449 1022.57 17.6122L1022.5 0Z"/>
	<path fill="#2EFFED" d="M0 1017.85C4.33964 1018.22 8.22439 1019.64 11.8263 1022.1C7.9567 1022.74 3.91393 1022.52 0 1022.5L0 1017.85Z"/>
	<path fill="#88F5DE" d="M221.655 1012.77C223.474 1012.91 224.894 1013.12 226.603 1013.77L227.758 1014.85C227.219 1015.64 225.839 1016.14 225.617 1016.51C225.196 1017.22 225.899 1020.84 226.034 1021.72L225.528 1022.04C224.045 1022.76 223.483 1022.24 222.038 1021.71C222.123 1020.42 222.592 1018.19 222.347 1017C221.938 1015.01 221.392 1015.08 221.655 1012.77Z"/>
	<path fill="#88F5DE" d="M1024 385.63L1024 413.625L1023.25 413.127C1022.24 409.651 1022.68 405.384 1022.66 401.765L1022.57 385.055L1024 385.63Z"/>
	<path fill="#88F5DE" d="M1024 284.641L1023.2 284.161C1022.14 282.206 1022.57 278.815 1022.55 276.559L1022.54 257.771L1024 257.359L1024 284.641Z"/>
	<path fill="#88F5DE" d="M667.929 1012.99L674.572 1012.93L675.083 1014.75C674.361 1015.35 673.844 1015.7 672.95 1016L673.138 1016.57C673.566 1018.16 673.587 1019.94 673.709 1021.59C672.808 1022.42 672.734 1022.38 671.5 1022.49L670.02 1021.01L670.25 1016.01L667.652 1014.43L667.929 1012.99Z"/>
	<path fill="#A3F7E3" d="M1024 92.193C1023.54 91.712 1022.93 91.3339 1022.61 90.75C1022.19 89.9915 1022.44 85.8484 1022.44 84.9017L1022.4 65.7712L1024 65.3594L1024 92.193Z"/>
	<path fill="#88F5DE" d="M1024 577.381L1024 605.625L1023.32 604.96C1022.06 603.335 1022.28 580.096 1022.66 576.824L1024 577.381Z"/>
	<path fill="#A3F7E3" d="M1022.42 919.653L1022.62 897L1024 895.842L1024 924.682C1022.27 922.947 1022.58 921.948 1022.42 919.653Z"/>
	<path fill="#A3F7E3" d="M1024 668.589C1023.23 667.758 1022.84 666.821 1022.65 665.712C1022.19 663.092 1022.47 659.949 1022.46 657.265L1022.54 641L1024 639.812L1024 668.589Z"/>
	<path fill="#88F5DE" d="M94.3881 1013.23L98.75 1013.31L99.5425 1014.25L99.3248 1015.83L98.5774 1016.18C97.5731 1016.67 97.9661 1016.45 97.1094 1017L97.4646 1017.65C98.0925 1018.95 98.2412 1020.28 98.3954 1021.69C96.5191 1022.56 96.212 1022.41 94.1814 1022.16L95.4455 1016.75L92.1333 1015.86L91.6654 1014.75L92.1295 1013.61L94.3881 1013.23Z"/>
	<path fill="#88F5DE" d="M895.325 129.556L903.051 129.493C903.037 130.325 903.098 130.037 902.859 130.837C902.344 132.561 901.682 135.283 900 136.211C898.716 135.936 897.692 135.749 896.603 134.955C895.799 132.965 895.041 131.755 895.325 129.556Z"/>
	<path fill="#2EFFED" d="M925.914 1022.09C926.156 1020.66 926.962 1017.95 926.48 1016.62C926.263 1016.02 923.458 1015.28 922.75 1014.96L922.75 1014.09C924.467 1013.06 926.547 1013.27 928.492 1013.24L930.492 1013.47L932.23 1014.87L931.86 1015.85L929.25 1016.44C928.85 1017.6 928.895 1016.88 929.173 1017.71C929.625 1019.06 929.501 1020.7 929.533 1022.11C927.992 1022.67 927.485 1022.42 925.914 1022.09Z"/>
	<path fill="#A3F7E3" d="M1024 512.62L1024 540.625L1023.09 540.203C1022.09 538.777 1022.55 534.81 1022.54 533.013C1022.49 526.198 1022.84 519.169 1022.04 512.4L1024 512.62Z"/>
	<path fill="#88F5DE" d="M1024 796.198C1023.59 795.763 1023.04 795.422 1022.76 794.892C1021.72 792.922 1022.28 773.439 1022.25 769.38L1024 768.154L1024 796.198Z"/>
	<path fill="#88F5DE" d="M1022.87 349.737C1022.12 347.01 1022.46 343.353 1022.45 340.505L1022.45 321.771L1024 321.359L1024 349.434L1022.87 349.737Z"/>
	<path fill="#88F5DE" d="M254.878 193.24L257.104 193.489L257.91 194C258.286 197.698 257.38 200.802 256.074 204.221L252.901 201.435C253.767 199.597 253.067 196.028 252.95 193.942L254.878 193.24Z"/>
	<path fill="#88F5DE" d="M1024 832.274L1024 860.628C1023.38 859.834 1022.66 859.039 1022.53 858C1022.16 855.154 1022.41 851.928 1022.38 849.046L1022.05 833.75L1024 832.274Z"/>
	<path fill="#A3F7E3" d="M1024 156.625C1023.64 156.37 1023.28 156.133 1022.98 155.803C1021.98 154.699 1022.42 149.284 1022.39 147.479C1022.3 141.765 1021.34 134.784 1022.18 129.25L1024 128.86L1024 156.625Z"/>
	<path fill="#88F5DE" d="M1021.88 193.154L1024 193.628L1024 220.429L1022.76 219.418C1021.96 216.908 1022.37 213.648 1022.33 211L1021.88 193.154Z"/>
	<path fill="#88F5DE" d="M732.972 1012.89L734.48 1013.05C736.279 1013.18 738.276 1013.15 739.986 1013.75L740.419 1014.5C738.992 1015.84 737.582 1015.06 737.529 1017.25C737.493 1018.73 737.985 1020.07 737.653 1021.57L735.909 1024L735.518 1024L734.052 1021.86L734.57 1017C734.386 1015 732.146 1016.08 730.687 1014.91C731.323 1013.48 731.529 1013.57 732.972 1012.89Z"/>
	<path fill="#2EFFED" d="M65.6695 1017.27C69.033 1018.11 72.1172 1019.11 75.1192 1020.91L75.4897 1021.91C70.4562 1021.98 64.758 1022.61 59.8217 1021.64L60.8942 1019.75C62.1614 1018.01 63.6486 1017.66 65.6695 1017.27Z"/>
	<path fill="#A3F7E3" d="M704.002 65.7125L709.712 65.8376C709.489 66.6428 709.355 67.3741 709.311 68.21C709.188 70.5631 709.246 71.8677 707.5 73.6341C706.228 73.7004 705.029 73.8595 703.831 73.3311C702.76 72.8591 703.507 69.397 703.094 68.1871C702.82 67.385 702.955 68.1291 702.811 67.1241L702.753 66.625C701.337 67.5456 702.514 70.5215 701.631 72.1614L701.563 65.9345L702.078 65.5217L704.002 65.7125Z"/>
	<path fill="#A3F7E3" d="M702.402 193.837L709.505 194.008C709.455 196.275 708.803 199.44 707.625 201.379L707.25 200.745L706.715 200.758C704.687 200.774 704.322 200.458 702.625 199.572L701.879 199.298L701.2 199.811L700.622 198.567C700.962 196.851 701.048 195.072 702.402 193.837Z"/>
	<path fill="#A3F7E3" d="M257.104 193.489C258.508 192.788 260.177 193.299 261.669 193.52C261.077 197.873 262.003 203.975 260.172 207.758L256.074 204.221C257.38 200.802 258.286 197.698 257.91 194L257.104 193.489Z"/>
	<path fill="#88F5DE" d="M1024 733.567C1023.61 733.122 1023.26 732.799 1023 732.28C1021.63 729.637 1021.42 708.314 1022.25 704.855L1024 704.23L1024 733.567Z"/>
	<path fill="#2EFFED" d="M897.445 1017.25C900.917 1018.05 903.971 1019.07 907.051 1020.93L907.469 1021.94C902.312 1022.05 896.113 1022.87 891.098 1021.69C892.906 1018.91 894.229 1018.07 897.445 1017.25Z"/>
	<path fill="#2EFFED" d="M770.131 1017.32C773.969 1018.05 777.068 1018.94 780.171 1021.48C774.71 1021.88 768.224 1022.7 762.833 1021.66L763.677 1020.45C765.522 1018.06 767.198 1017.61 770.131 1017.32Z"/>
	<path fill="#88F5DE" d="M895.058 257.49L902.558 257.494C903.267 258.066 902.922 257.754 903.59 258.432C903.248 259.778 902.926 261.569 902.159 262.739C901.042 264.442 899.42 265.603 897.5 266.049C895.775 264.605 895.783 261.758 895.109 259.615L894.463 257.539L895.058 257.49Z"/>
	<path fill="#2EFFED" d="M833.384 1017.34C837.154 1018.16 841.869 1019.11 844.945 1021.51C841.169 1022.49 830.268 1023.14 826.954 1021.22C828.705 1018.73 830.509 1018.15 833.384 1017.34Z"/>
	<path fill="#A3F7E3" d="M1024 988.152L1022.78 987.271C1021.64 985.377 1021.31 963.075 1021.86 960.75L1024 960.08L1024 988.152Z"/>
	<path fill="#2EFFED" d="M963.478 1017.66C966.705 1018.59 969.635 1019.36 972.24 1021.6C966.962 1022.45 959.948 1023.53 954.886 1021.57L955.668 1020.56C957.841 1017.95 960.336 1017.94 963.478 1017.66Z"/>
	<path fill="#2EFFED" d="M192.967 1016.98C196.961 1017.41 202.109 1019.63 205.498 1021.88C199.619 1022.24 192.882 1022.57 187.069 1021.66L187.33 1021.18C188.836 1018.5 190.045 1017.8 192.967 1016.98Z"/>
	<path fill="#2EFFED" d="M122.436 1021.56C123.887 1019.36 125.191 1018.28 127.822 1017.74C131.266 1017.04 137.325 1019.29 140.236 1021.15C140.721 1021.46 140.789 1021.55 141.151 1021.9C135.431 1022.14 127.805 1023.41 122.436 1021.56Z"/>
	<path fill="#2EFFED" d="M705.477 1017.37C709.484 1017.85 712.207 1018.59 715.586 1020.96L715.862 1021.91C711.267 1022.11 702.568 1023.65 698.734 1021.05C700.654 1018.42 702.39 1018.12 705.477 1017.37Z"/>
	<path fill="#88F5DE" d="M767.954 129.564L773.476 129.508C774.249 131.981 773.643 134.93 772.618 137.25C770.769 138.2 768.076 137.271 766 136.965L765.269 136.115L766.199 129.234L767.954 129.564Z"/>
	<path fill="#2EFFED" d="M634.886 1021.51C635.681 1019.61 636.409 1018.64 638.416 1017.86C641.879 1016.52 646.451 1017.8 649.589 1019.34C650.52 1019.8 651.3 1020.31 652.125 1020.93L652.41 1021.88C647.049 1022.05 640.016 1022.9 634.886 1021.51Z"/>
	<path fill="#88F5DE" d="M189.407 193.508L198.09 193.499C197.805 196.173 197.33 200.673 195.125 202.489L195.125 201.125L195.5 200.25L195.228 199.763C193.697 200.295 192.317 200.653 190.701 200.82L190.241 200.863L189.739 204.323C189.117 200.712 189.296 197.155 189.407 193.508Z"/>
	<path fill="#A3F7E3" d="M765.811 193.701L767.585 193.984L773.562 194.255C772.969 195.736 772.578 196.72 772.75 198.361L773.693 199.976L767.477 204.272C765.105 201.138 765.77 197.443 765.811 193.701Z"/>
	<path fill="#2EFFED" d="M570.865 1021.53C572.187 1019.25 572.959 1018.11 575.679 1017.4C579.367 1016.45 584.808 1018.63 587.948 1020.58L588.996 1021.35C584.507 1022.79 575.333 1022.65 570.865 1021.53Z"/>
	<path fill="#2EFFED" d="M507.784 1021.59C508.468 1019.8 508.622 1018.78 510.463 1017.85C513.2 1016.48 517.199 1017.35 519.872 1018.47C522.007 1019.37 523.981 1020.71 525.97 1021.89C520.31 1022.25 513.341 1022.86 507.784 1021.59Z"/>
	<path fill="#2EFFED" d="M315.488 1021.6C315.856 1019.82 315.822 1018.99 317.5 1017.95C319.93 1016.44 323.71 1017.14 326.253 1017.94C328.605 1018.68 331.53 1020.03 333.135 1021.89C327.659 1022.12 320.845 1022.8 315.488 1021.6Z"/>
	<path fill="#88F5DE" d="M897.529 321.416C899.018 321.491 900.564 321.662 902.044 321.498C902.773 321.967 903.615 322.043 904.457 322.228L903.426 323.479C903.337 324.807 903.226 325.722 902.715 326.975C901.193 328.144 897.943 331.551 896.31 331.75L895.532 330.5C895.45 328.017 894.545 323.694 895.421 321.566L897.529 321.416Z"/>
	<path fill="#88F5DE" d="M317.028 208.202L316.875 193.817L325.301 193.9L326.888 194.147C326.659 198.506 323.487 201.973 321.75 205.88C321.437 204.778 321.429 205.331 321.625 204.547C321.864 203.589 321.739 203.123 321.375 202.248L320.23 202.361L320.125 201.625L322.234 199.922C322.811 199.45 323.118 199.12 323.5 198.5L323.539 197.867C323.628 196.888 323.569 197.255 324 196.25C322.978 196.579 323.341 196.283 322.869 196.893C321.457 198.717 320.125 199.298 318.064 200.251C317.064 200.714 317.622 206.542 317.028 208.202Z"/>
	<path fill="#2EFFED" d="M251.178 1021.66C252.093 1019.59 253.035 1018.04 255.29 1017.28C259.34 1015.92 266.019 1019.23 269.502 1021.4L270.112 1021.87C264.386 1022.29 256.718 1023.24 251.178 1021.66Z"/>
	<path fill="#2EFFED" d="M386.025 1016.81C390.398 1017.83 394.229 1018.91 397.667 1022C392.487 1022.75 383.791 1023.23 378.988 1021.2L379.788 1020.05C381.56 1017.67 383.177 1017.27 386.025 1016.81Z"/>
	<path fill="#2EFFED" d="M443.061 1021.37C443.655 1019.72 443.824 1018.9 445.5 1018.02C448.309 1016.53 452.384 1017.16 455.181 1018.3C457.269 1019.15 459.958 1020.5 461.682 1021.94C457.468 1022.58 446.638 1023.58 443.061 1021.37Z"/>
	<path fill="#A3F7E3" d="M835.416 449.396L838.391 449.486C838.362 451.476 838.932 454.124 837.25 455.467L836.093 456.054C835.046 456.566 834.085 457.103 833.637 458.25C832.904 460.129 833.119 461.553 831.397 462.86C829.911 461.546 830.468 456.604 830.016 454.437L830.048 449.492C831.804 449.632 833.653 449.453 835.416 449.396Z"/>
	<path fill="#88F5DE" d="M190.524 0L198.8 0L201.087 2.21512L201.076 3.42641L198.73 1.26521C197.963 2.19255 197.106 3.13849 196.64 4.25803C195.451 7.10893 196.432 12.0655 193.25 13.1788L190.436 12.4842L190.524 0Z"/>
	<path fill="#A3F7E3" d="M124.893 385.479C126.866 384.621 130.102 384.796 132.189 385.261L131.65 397.267L125.32 399.426L124.893 385.479Z"/>
	<path fill="#A3F7E3" d="M386.629 129.447L391.25 129.582L390.25 141.472C389.613 138.997 389.984 135.837 390 133.25L390.5 132.5C390.397 131.471 390.492 131.099 389.548 130.489C388.616 129.888 388.226 130.103 387.223 130.342C386.187 132.206 386.268 132.976 386.359 135.024L386.318 136.146C386.203 140.412 385.964 142.627 383.25 146.185L382.75 145.745L380.946 145.958C381.82 141.544 379.383 134.034 381.467 130.156L381.443 129.468L386.629 129.447Z"/>
	<path fill="#88F5DE" d="M381.443 129.468L386.629 129.447L386.431 129.839C385.358 132.128 386.025 137.529 384.545 139.034C384.078 139.509 383.348 139.622 382.75 139.916L381.919 139.589C381.159 136.785 381.493 133.096 381.467 130.156L381.443 129.468Z"/>
	<path fill="#A3F7E3" d="M445.315 65.5014C447.708 65.5364 450.744 64.9633 452.592 66.5L452.943 67.4059L455.812 70.2746L455.051 70.8066L454.534 71.2082C453.677 71.8468 453.293 72.164 452.705 73.0867C450.877 75.9575 447.917 77.2929 445.061 78.9919C444.579 74.7547 444.889 70.3676 444.979 66.1082L445.315 65.5014Z"/>
	<path fill="#2EFFED" d="M986.345 11.8028C986.691 9.22298 985.693 2.13622 987.319 0.558277L988.257 0.711531C990.44 1.0239 992.94 0.676212 995.121 0.426729L995.373 11.7182L986.345 11.8028Z"/>
	<path fill="#3ABCEA" d="M353.83 0.914078L355.29 1.25C355.944 4.88154 354.906 9.07954 355.698 12.5259L346.715 12.196C347.381 8.74213 346.997 4.50504 347.043 0.953188L353.83 0.914078Z"/>
	<path fill="#2EFFED" d="M666.851 12.088C667.366 8.57597 666.975 4.48373 666.991 0.905256L675.385 0.881261L675.724 9.13069C675.753 9.93125 675.619 11.7909 675.917 12.4435L666.851 12.088Z"/>
	<path fill="#3ABCEA" d="M474.621 12.4442C475.385 9.00529 474.905 4.48482 474.954 0.91274L483.132 0.868563C483.895 4.44188 482.73 9.20497 483.751 12.4423L474.621 12.4442Z"/>
	<path fill="#3ABCEA" d="M538.995 0L539.624 0C541.868 1.28893 544.995 0.545788 547.562 0.269606L547.586 12.0457L538.708 11.9725C539.495 8.48517 538.945 3.64724 538.995 0Z"/>
	<path fill="#3ABCEA" d="M859.139 0L859.664 0C861.617 1.49033 865.24 0.756266 867.713 0.71189L867.931 11.8214L858.55 11.7088L859.139 0Z"/>
	<path fill="#3ABCEA" d="M219.015 0.40671L227.538 0.670205L227.552 11.9374L218.488 11.7693C218.948 8.0212 218.454 4.2019 219.015 0.40671Z"/>
	<path fill="#3ABCEA" d="M25.9747 0L26.6179 0C28.918 1.33147 32.4434 0.747942 35.1295 0.716438C35.1827 3.88908 34.6383 8.53737 35.3638 11.5244L26.0466 11.4164L25.9747 0Z"/>
	<path fill="#3ABCEA" d="M90.5172 0L99.0688 0C99.1358 3.60668 98.6858 8.08051 99.3366 11.5709L90.5006 11.7548L90.5172 0Z"/>
	<path fill="#88F5DE" d="M62.5467 0L69.1256 0L76.4127 6.22397C74.2766 5.98967 73.5678 5.13342 72.2395 3.56228L71.875 3.125C70.7354 3.22095 70.6688 3.4908 69.8105 4.18446L70.2475 5.375C71.5065 5.53199 71.0003 5.27402 71.825 6.02046L69.3419 8.64857C68.8326 9.11393 68.3471 9.5215 67.9582 10.1007C66.5095 12.258 64.4239 13.7932 62.4429 15.4455L62.5467 0Z"/>
	<path fill="#3ABCEA" d="M922.49 0L923.122 0C925.121 1.39993 928.788 0.507746 931.266 0.312356L931.438 11.8377C928.7 12.3359 925.22 11.8379 922.421 11.7069L922.49 0Z"/>
	<path fill="#3ABCEA" d="M154.872 0L163.085 0L163.36 12.0673L154.539 11.8623L154.872 0Z"/>
	<path fill="#3ABCEA" d="M418.125 0L419.35 0C419.459 3.76014 418.75 9.02194 419.523 12.5429L410.873 12.5125C411.677 9.0969 411.054 3.96444 411.102 0.353572C413.512 0.510368 415.743 0.287878 418.125 0Z"/>
	<path fill="#3ABCEA" d="M736.834 0.799315L739.75 0.828944C740.731 4.4846 739.648 8.47532 740.309 12.1233L730.783 11.9895L730.728 0.956864L736.834 0.799315Z"/>
	<path fill="#3ABCEA" d="M794.995 0L803.609 0C803.633 3.86174 803.2 8.32468 803.78 12.1067L794.705 12.1204C795.372 8.39212 794.937 3.83004 794.995 0Z"/>
	<path fill="#A3F7E3" d="M701.459 896.218L702.069 895.808C703.275 896.365 704.192 896.553 705.489 896.73C706.089 899.858 706.696 919.398 705.402 921.462C704.829 922.376 704.329 922.768 703.467 923.376L702.131 923.592L701.923 905.231C701.927 902.648 702.494 898.455 701.459 896.218Z"/>
	<path fill="#3ABCEA" d="M282.872 0L291.258 0L291.435 12.4635L282.536 12.5083C283.487 9.1683 282.812 3.59904 282.872 0Z"/>
	<path fill="#88F5DE" d="M188.931 271.941L188.827 256.833C190.634 256.639 193.888 256.122 195.569 256.645L198.903 257.718L198.75 260.92C198.536 260.134 198.441 259.546 198.375 258.748L197.385 258.167L196.746 259.031L196.952 259.676C197.21 260.713 196.992 261.013 196.744 262.002C195.884 265.435 196.165 268.293 193.5 270.983C191.993 271.388 190.499 271.881 188.931 271.941Z"/>
	<path fill="#A3F7E3" d="M123.487 576.794C125.827 576.127 128.9 576.449 131.355 576.411C131.288 581.496 131.861 587.586 130.411 592.465L123.045 588.36C124.315 585.917 123.504 579.692 123.487 576.794Z"/>
	<path fill="#3ABCEA" d="M602.548 12.0424C603.289 8.94447 602.621 4.00781 602.628 0.713653L611.542 0.283485C612.71 4.16323 611.131 8.88809 612.248 12.4842L602.548 12.0424Z"/>
	<path fill="#88F5DE" d="M382.814 0L391.965 0L396.218 4.62989L396.136 5.81817L395.557 4.98058L394.75 4.245C393.345 5.14152 392.217 6.19469 391.255 7.54504C390.484 8.62735 389.545 9.04934 388.442 9.7323C387.61 10.2479 386.909 10.8162 386.145 11.4236C384.847 12.4564 384.026 12.7865 382.414 13.1103L382.814 0Z"/>
	<path fill="#A3F7E3" d="M253.81 830.885L259.057 837.596C257.307 839.916 257.737 841.889 257.66 844.733C257.533 849.396 257.895 854.631 257.133 859.197C255.685 859.284 254.459 859.641 253.171 858.922L253.176 845.397C253.085 841.047 252.095 834.924 253.81 830.885Z"/>
	<path fill="#A3F7E3" d="M61.7332 384.979C64.0084 385.043 66.5148 384.899 68.7455 385.325C68.6258 391.138 69.3035 398.203 67.4024 403.718C67.1273 404.516 67.2332 405.426 67.25 406.255C65.8671 406.255 64.6709 405.974 63.5 406.755L62.5233 406.528L62.4239 406.14L61.4319 403.299C62.2294 397.509 59.9129 390.606 61.7332 384.979Z"/>
	<path fill="#A3F7E3" d="M60.5854 767.98L66.5539 767.986L66.4774 786.749C66.4697 788.977 66.9482 792.505 66.0817 794.491L61.75 794.523C61.5194 794.265 61.1867 794.071 61.0583 793.75C60.5517 792.484 60.9912 788.532 60.9705 787.031C60.8839 780.77 60.2501 774.212 60.5854 767.98Z"/>
	<path fill="#A3F7E3" d="M252.987 385.473L259.214 385.568L258.198 413.101C256.733 412.807 255.2 412.994 253.717 413.065L252.987 385.473Z"/>
	<path fill="#A3F7E3" d="M0 11.375L-0 -0L5.375 0L5.73047 0L9.31232 2.86597C12.4325 5.32222 15.1574 8.35647 17.9284 11.1958L17.4216 11.2541C16.2772 11.3764 15.3685 11.4452 14.2365 11.2384C10.2644 10.5131 3.84756 13.1228 -0 14.3155L0 11.375Z"/>
	<path fill="#2EFFED" d="M0 11.375L-0 -0L5.375 0L5.02072 0.817383C3.81264 3.63896 3.15786 6.22912 2.66922 9.25C1.85184 10.3258 1.15179 10.7281 0 11.375Z"/>
	<path fill="#A3F7E3" d="M59.9613 730.082C60.9811 721.567 59.9815 711.871 59.8166 703.257C61.593 703.394 63.6386 703.717 65.3734 703.235L66.2239 702.972L66.5069 730.493C64.6557 730.566 61.3352 731.244 59.9613 730.082Z"/>
	<path fill="#A3F7E3" d="M830.625 0L831.109 0L838.875 0L839.23 0L851.164 12.2507C850.869 12.9066 850.839 13.5689 850.08 13.7797C848.474 14.2254 846.433 13.4346 844.788 13.2299C841.858 12.8654 838.897 12.8412 835.967 13.1644C835.036 13.2671 834.183 13.2484 833.25 13.1995L830.391 15.4285L830.625 0Z"/>
	<path fill="#88F5DE" d="M831.109 0L838.875 0C835.897 4.25536 836.589 8.56721 832.75 12.3019L831.5 12.0377C830.19 9.76911 831.078 2.81847 831.109 0Z"/>
	<path fill="#88F5DE" d="M703.066 0L712.07 0C715.453 3.88435 720.064 10.531 724.481 13.0662C724.91 14.0456 724.773 13.4922 724.779 14.75C722.215 15.1701 719.948 13.461 717.391 13.1764C712.484 12.6304 707.368 13.4231 702.36 12.9609L703.066 0Z"/>
	<path fill="#88F5DE" d="M126.473 0L134.881 0C138.416 3.69315 141.895 7.95569 145.808 11.2049C145.985 12.0212 145.986 12.4746 145.786 13.2857C143.534 13.123 141.465 12.9635 139.23 13.422L126.468 15.5048L126.473 0Z"/>
	<path fill="#A3F7E3" d="M958.552 0L965.764 0L977.469 10.6454C978.008 11.4646 978.717 12.3163 979 13.255C977.845 13.255 976.583 12.9217 975.75 13.755L974.75 13.755L974.25 14.255C972.996 14.255 971.137 13.8679 970.25 14.755C968.674 14.755 966.277 14.4037 965 15.255C963.766 15.2488 964.237 15.4841 963.5 14.7568L958.423 15.4881L958.552 0Z"/>
	<path fill="#88F5DE" d="M574.457 0L583.674 0L596.058 12.2891C593.639 14.3867 590.464 13.0791 587.538 13.2513C585.088 13.3956 582.688 13.9356 580.25 14.1246C579.071 14.216 575.187 14.4828 574.542 13.9083L574.409 3.9301L574.457 0Z"/>
	<path fill="#88F5DE" d="M894.945 0L902.884 0L915.317 13.1884C915.01 13.3955 914.408 13.8466 913.998 13.997C912.486 14.552 910.323 14.1395 908.699 14.2343C906.33 14.3725 903.839 14.6219 901.5 15.0389C899.266 15.4372 897.686 16.3038 895.485 15.5146C894.482 13.322 894.937 8.97812 894.916 6.47553L894.945 0Z"/>
	<path fill="#88F5DE" d="M638.971 0L647.405 0L661.016 13.2827L660.467 13.9011C659.399 14.8296 657.137 14.1325 655.794 13.9695C650.094 13.2778 644.092 13.9923 638.329 14.028L638.411 6.22132C638.41 4.12631 638.71 2.07474 638.971 0Z"/>
	<path fill="#A3F7E3" d="M446.524 0L455.778 0C459.643 4.60118 464.148 9.63145 469.02 13.1727L468.383 13.6173C466.315 14.9077 458.36 14.1184 455.559 14.1493C454.225 14.1639 452.665 14.43 451.376 14.1318C450.192 13.8581 449.436 13.5696 448.236 13.993L447.387 14.3229L446.491 13.75L446.407 9.27776L446.524 0Z"/>
	<path fill="#A3F7E3" d="M510.952 0L520.328 0C524.312 4.64428 528.508 9.7398 533.427 13.422L533.289 14.1521L532.25 14.7044C525.719 13.0262 517.87 15.0023 510.984 14.25L510.326 13.172L510.952 0Z"/>
	<path fill="#A3F7E3" d="M766.965 0L774.863 0C779.694 4.95992 785.195 12.288 791.653 14.7812L790.737 15.8185L766.468 14.6935L766.965 0Z"/>
	<defs>
		<linearGradient id="gradient_0" gradientUnits="userSpaceOnUse" x1="261.78552" y1="-0.23542354" x2="270.88629" y2="30.130518">
			<stop offset="0" stop-color="#78EDDC"/>
			<stop offset="1" stop-color="#EFFFE9"/>
		</linearGradient>
	</defs>
	<path fill="url(#gradient_0)" d="M254.4 0L261.297 0L263.074 0L273.362 10.2829C276.685 11.8346 280.575 12.45 282.326 15.8643L283.669 26.5959C281.496 27.8257 276.347 26.8526 273.682 26.7001L254.089 26.0702C253.425 21.4773 253.926 16.1286 253.964 11.4484L254.394 2.77745L254.4 0Z"/>
	<path fill="#88F5DE" d="M254.4 0L261.297 0C261.287 0.483201 261.422 1.91748 261.25 2.28803C260.446 4.01998 258.677 4.99356 258.002 7.0025C256.797 7.60647 256.691 7.79289 255.391 7.53447C254.349 6.33134 254.494 4.30456 254.394 2.77745L254.4 0Z"/>
	<defs>
		<linearGradient id="gradient_1" gradientUnits="userSpaceOnUse" x1="327.47815" y1="-1.7366505" x2="334.0119" y2="30.160463">
			<stop offset="0" stop-color="#71EEE1"/>
			<stop offset="1" stop-color="#EEFFEB"/>
		</linearGradient>
	</defs>
	<path fill="url(#gradient_1)" d="M318.896 0L327.703 0L334.369 6.82432L344.175 15.4699C345.598 16.6486 346.476 18.4278 347.102 20.1401L347.739 28.092C338.327 27.3596 328.221 26.6996 318.824 27.6943C317.274 24.8335 317.862 15.0006 318.36 11.612L318.896 0Z"/>
	<path fill="#2EFFED" d="M511.938 57.4362C514.821 58.1505 517.794 63.5592 519.49 66.0056L539.104 94.5372L544.579 105.949C547.193 111.913 549.038 117.862 550.606 124.169L552.071 129.541C553.622 137.425 555.292 145.668 555.545 153.718C560.844 154.225 566.216 155.21 571.322 156.739L574.728 157.458L610.615 168.923C624.43 174.97 638.33 182.764 650.544 191.642L654.358 194.403L667.558 205.755L675.267 213.659L682.664 222.196L687.42 227.991C694.387 237.737 700.692 247.675 705.897 258.485L713.883 277.632L722.13 258.049L724.408 253.646L733.704 239.029L746.277 223.075L767.477 204.272L773.693 199.976L782.125 194.474L785.917 192.521L795.726 188.318L803.71 185.371C806.405 184.392 808.994 183.011 811.758 184.25C813.052 185.803 813.381 187.027 813.953 188.933L814.118 189.432L815.075 193.569L817.514 220.613L817.501 227.428L814.528 252.699L813.681 256.981C811.38 266.514 808.665 275.708 804.777 284.729L796.528 301.305L787.558 316.854L785.099 320.404L757.007 350.07L752.071 354.298L738.55 364.141C734.258 366.628 730.082 369.199 726.227 372.334L728.088 381.202C728.474 382.625 729.046 384.194 729.26 385.641L732.523 396.855C732.847 398.033 733.613 399.953 733.603 401.134C734.964 405.331 736.064 408.491 739.34 411.637L741.97 414.183L747.888 420.138L759.956 433.509L767.71 442.953C768.419 443.836 769.732 446.024 770.634 446.594L773.272 449.861L791.622 478.721L803.526 502.047L806.591 509.629L808.604 514.384L813.736 525.623L814.044 525.591L817.176 514.408L818.917 509.502L830.915 483.419L835.52 476.17L836.406 475.086C842.347 465.893 849.475 457.754 856.709 449.576L861.811 444.413L867.697 438.882L893.108 420.377L908.113 412.891L924.882 406.813L931.677 404.773C935.511 403.597 941.423 401.376 945.35 402.25C947.828 405.042 947.511 409.426 947.491 412.985L947.613 414.744C947.6 420.757 947.839 427.003 947.31 432.99C946.941 437.171 945.991 441.287 945.573 445.459L945.25 447.531C943.788 453.306 942.658 459.084 940.855 464.779C939.516 469.01 937.684 473.053 935.994 477.151L933.08 483.529C932.609 484.434 930.819 487.115 930.804 487.964L924.731 498.903L915.575 512.87L895.339 534.993L882.849 546.217L867.228 557.743L861.374 561.247L831.99 575.381L827.218 576.943L831.478 605.507L831.554 611.43L832.562 641.319L832.427 653.53L840.608 641.33L842.878 638.051L865.504 612.737L870.782 608.336L894.183 592.387L926.517 578.864C930.555 577.299 934.905 576.356 939.115 575.382L958.357 572.244L968.531 571.223C969.939 571.073 971.706 570.644 973.051 570.998L972.212 577.125C970.17 587.25 967.212 596.524 963.532 606.157L961.542 611.001C953.478 628.082 943.919 644.385 931.384 658.609L926.575 663.581L919.543 670.494L914.414 675.362C907.064 681.559 899.687 687.498 891.484 692.567C884.021 697.178 876.077 700.794 868.038 704.261L860.131 707.348C848.719 711.191 837.336 713.828 825.38 715.309L822.797 715.787C821.664 718.107 821.348 720.784 820.75 723.282L817.931 733.224L817.16 736.138C815.029 744.36 812.853 752.884 808.819 760.414L830.752 748.286C839.501 744.33 847.639 740.523 856.933 737.911L860.963 736.899L870.694 734.708C877.617 732.921 884.703 732.19 891.828 731.855C902.817 731.165 913.574 731.687 924.445 733.506L932.098 734.892L941.124 736.96L953.997 741.077L964.125 745.374C962.561 750.281 956.689 755.53 953.331 759.396C946.258 767.537 939.85 775.746 931.555 782.751L923.939 789.149L914.467 796.614L905.914 802.656C893.216 810.239 881.132 816.234 867.135 821.127L860.592 822.927C853.195 824.637 845.924 826.324 838.345 827.042C826.505 828.163 814.666 827.25 802.915 825.719L796.78 824.454L777.118 819.189L768.614 832.407C767.373 833.875 764.617 836.441 763.853 838.095L742.651 861.555L733.077 870.767L702.069 895.808L701.459 896.218L674.544 912.577L668.979 915.442L648.678 925.139L637.358 929.631L610.642 939.164L604.862 940.731L579.588 946.702L570.14 948.22L546.927 951.335L540.676 951.947L506.634 953.417C498.932 953.377 491.183 952.632 483.508 952.045L477.008 951.46L451.043 948.235L445.09 947.098L419.627 940.945L412.89 939.086L386.103 930.094L375.356 925.651L356.285 916.39L349.032 912.866L323.618 897.081C323.246 896.267 319.412 894.078 318.461 893.414L292.179 872.895L284.876 866.346L279.181 860.719L275.772 856.971L259.057 837.596L253.81 830.885L244.883 818.557L227.134 822.668L220.312 823.794C210.522 825.141 200.668 826.097 190.776 825.369C181.526 824.689 172.605 822.658 163.593 820.578L156.557 818.707C154.715 818.594 152.039 817.411 150.245 816.834C143.434 814.641 136.998 812.029 130.482 809.094L130.481 809.069L118.566 802.825L111.977 798.427L99.7279 789.623L91.976 783.716L74.1248 767.345L63.6802 756.811L55.965 750.085L74.9546 741.578C83.8524 738.348 93.532 736.375 102.797 734.427L120.13 732.318L134.291 732.391L154.269 734.829L179.725 741.617C192.146 746.034 203.049 751.779 214.336 758.529C214.064 756.36 212.845 753.959 212.096 751.89L207.889 739.929L206.012 734.402L200.877 715.891L194.483 714.67L189.076 713.768L163.416 707.466L157.012 705.056L150.537 702.367C134.487 695.018 121.039 686.252 107.362 675.096L93.0881 660.257C83.5645 648.673 75.5582 636.735 68.5803 623.429L63.4528 611.676L60.9639 605.938C57.1051 596.768 53.7079 586.704 51.8928 576.919L51.0054 573.558C51.0779 572.453 51.058 572.358 51.75 571.508L61.2462 571.825L92.5545 576.702L98.667 578.453L123.045 588.36L130.411 592.465L150.35 606.829L158.161 613.519C163.973 618.81 169.793 624.156 175.072 629.991C177.718 632.915 179.943 636.133 182.461 639.153L184.11 641.311L192.928 653.762L192.369 640.093L192.683 637.731C192.129 634.897 192.464 631.356 192.631 628.444L193.895 611.796L194.272 609.629L197.056 588.379L198.752 577.709L194.968 575.89L185.531 571.869L163.842 560.458C161.442 559.305 159.071 557.572 156.784 556.178L144.035 546.798L137.401 541.266L125.404 530.676C115.813 521.518 108.405 511.495 100.844 500.67L93.7617 488.497L91.7171 484.197L88.5959 477.002C84.8703 467.851 81.9396 458.726 80.2877 448.977C78.2466 439.245 77.3762 429.764 77.0027 419.836L76.9007 418.623L77.051 398.088L91.7208 403.689L98.9139 406.382L116.974 413.615L130.918 420.569L155.963 437.914L163.359 444.398L165.949 446.673L169.436 450.082L186.863 471.484L191.566 478.7L194.72 483.877C199.229 492.053 203.588 500.35 206.676 509.181L208.167 513.424L212.071 527.035C214.449 523.091 215.604 518.209 217.311 513.928L218.961 509.506L221.765 503.126L225.638 494.732L231.144 483.643L234.404 477.413L252.619 449.23L254.748 446.408L275.646 420.131L281.377 414.111L285.797 409.168C289.421 404.816 290.307 400.07 291.735 394.751L294.805 381.865L298.105 367.65C295.905 365.857 292.409 364.597 289.829 363.321L285.168 360.842L275.533 355.298L267.526 349.542L257.822 341.66L253.969 338.323C248.062 333.234 242.681 327.01 237.926 320.843L235.093 316.836L227.869 305.899L221.027 292.585L220.84 291.908L217.834 284.896C214.232 275.564 211.608 266.477 209.783 256.634C208.203 247.076 207.094 237.71 206.969 228.021L207.059 220.872L211.209 193.616C211.617 190.542 212.57 185.055 214.145 182.408C215.411 180.28 217.097 179.571 219.423 179.073C222.108 179.908 224.465 181.005 226.964 182.272L238.529 190.606L243.9 194.465L252.901 201.435L256.074 204.221L260.172 207.758L273.828 221.646L290.866 244.369L296.632 253.948L298.937 257.873L307.495 277.5C307.93 278.59 309.213 282.922 310.046 283.44L310.2 282.868L319.302 258.19L337.459 228.112L342.397 221.872L349.658 213.938L355.639 207.869L370.157 194.33L374.955 190.706C376.167 190.527 379.813 187.361 381.056 186.557C391.314 179.922 401.988 174.144 413.025 168.912L426.494 163.644L446.534 157.44L449.058 157.03L468.32 153.784C468.501 145.889 469.791 137.878 471.253 130.126L471.988 128.038C472.228 123.949 474.477 119.016 475.821 115.148L485.342 94.3419L504.647 65.8295L508.46 61.1178L511.938 57.4362Z"/>
	<path fill="#EDFFDC" d="M931.293 593.245L953.754 587.449L946.97 606.499L944.328 612.35L932.5 633.046L926.682 640.507C917.763 651.362 907.419 662.693 895.872 670.802L888.103 676.373C881.876 680.824 874.999 684.352 868.083 687.608L861.401 690.44C850.632 694.506 840.285 697.333 828.902 699.035L840.019 675.237L842.409 669.744C847.168 659.12 853.633 648.168 860.965 639.098L865.311 633.991L866.235 632.883C874.017 625.153 882.199 618.14 891.461 612.213L894.977 609.856L903.243 605.179C910.023 601.123 917.627 598.282 924.95 595.38L931.293 593.245Z"/>
	<path fill="#EDFFDC" d="M867.585 751.086C886.633 745.668 905.755 745.393 925.139 748.629L940.7 752.876L925.641 768.518L923.537 770.56C915.609 777.685 906.061 786.974 896.371 791.358L893.86 792.839L875.792 801.084L864.388 805.384C843.593 811.401 824.013 813.085 802.652 809.133L796.422 807.768L785.857 805.344L789.854 799.941C793.183 793.971 796.518 790.231 801.867 785.969C804.454 783.198 808.395 780.794 811.51 778.592C817.54 774.328 823.606 769.994 829.998 766.286C839.023 760.692 850.613 756.108 860.78 753.17C862.788 752.223 865.434 751.736 867.585 751.086Z"/>
	<path fill="#EDFFDC" d="M418.675 182.282C427.536 178.424 437.015 174.373 446.392 172.04L442.269 185.663C441.906 186.75 441.542 188.64 440.932 189.569L439.452 193.359C434.392 205.343 428.39 216.7 420.4 227.03L412.657 236.83C404.934 246.01 395.262 254.286 386.113 261.996L381.338 265.916L355.48 283.963L354.544 284.415L339.553 292.356C333.256 296.296 325.755 299.106 318.821 301.691L322.158 291.235L324.115 285.703C327.928 275.697 331.676 265.659 337.001 256.331L339.261 252.327L348.122 238.941L353.925 231.064L357.53 226.854L365.324 218.72C375.144 208.841 387.786 198.975 399.999 192.256L412.295 185.358L418.675 182.282Z"/>
	<path fill="#A3F7E3" d="M381.229 257.275L384.75 256.535C386.141 257.938 385.187 260.181 386.113 261.996L381.338 265.916L381.229 257.275Z"/>
	<path fill="#EDFFDC" d="M583.074 190.023L578.655 173.383L604.97 183.044L612.1 186.305C615.627 187.979 619.277 189.549 622.534 191.716L632.386 197.705C643.367 204.279 652.582 211.209 661.675 220.255L668.487 227.38L669.581 228.582L676.593 237.559L686.431 252.746L688.422 256.407L700.817 285.24L703.254 291.591C703.839 293.033 706.504 298.305 706.245 299.492L688.877 292.212L676.733 286.685L667.698 281.68C659.492 277.684 651.66 272.408 644.332 266.985L634.515 259.369L630.093 255.643L610.867 236.581L601.481 225.024C594.568 215.586 589.066 204.581 584.565 193.819L583.074 190.023Z"/>
	<path fill="#A3F7E3" d="M637.735 255.541L638.75 254.596C640.722 255.077 642.475 256.068 644.473 256.433L644.547 257.767C644.56 260.776 644.812 264.022 644.332 266.985L634.515 259.369C635.201 258.697 635.811 258.265 636.652 257.803L637.983 257.499L637.735 255.541Z"/>
	<path fill="#88F5DE" d="M637.983 257.499C639.588 257.32 640.382 257.004 641.843 257.75C642.246 259.07 641.905 259.745 641.481 261L640.51 261.959C638.514 261.377 637.995 259.288 636.652 257.803L637.983 257.499Z"/>
	<path fill="#EDFFDC" d="M97.5872 749.661C108.948 747.26 124.126 745 135.724 746.952C143.103 747.181 150.192 748.51 157.367 750.142L162.917 751.507C184.035 756.987 206.56 767.894 222.204 783.388C224.062 785.314 225.997 787.151 227.271 789.533L232.916 799.348L235.424 804.054L236.655 806.25C235.233 807.62 229.037 808.026 226.886 808.312L219.792 809.65C200.045 812.874 179.437 810.669 160.209 805.389L142.744 798.893C138.206 797.62 133.502 794.824 129.306 792.654L122.885 788.891C113.284 783.603 104.439 776.119 96.3307 768.811L91.3602 764.023L80.5359 753.823L91.6106 750.814L97.5872 749.661Z"/>
	<path fill="#A3F7E3" d="M189.714 767.75C190.765 767.394 190.346 767.441 191.454 767.441C193.024 767.442 193.896 767.159 195.034 768.25L195.133 785.788C195.141 788.557 195.629 792.151 194.625 794.75C193.266 795.151 191.9 795.307 190.5 795.489L189.75 794.888L189.714 767.75Z"/>
	<path fill="#EDFFDC" d="M77.1208 607.303L69.8587 586.846C71.9888 586.687 74.692 587.632 76.7842 588.122L93.3812 592.598L99.1658 594.425C107.65 597.526 115.613 600.864 123.433 605.421L132.994 611.771C141.228 617.372 149.284 624.169 156.176 631.364L162.721 637.674L164.938 640.251C172.707 649.488 179.822 659.333 185.84 669.811L189.458 675.917L190.222 677.232C191.97 679.85 194.315 682.747 195.606 685.586C197.531 689.818 197.892 696.394 198.73 701.038L189.493 698.809L163.695 691.758L155.957 688.834C148.017 685.592 140.503 681.022 133.172 676.603L124.268 670.286C113.434 661.391 104.589 651.878 96.1535 640.707L93.9938 637.71L91.7353 634.202C86.7802 627.461 82.6791 619.709 79.1564 612.134L77.1208 607.303Z"/>
	<path fill="#FBF09C" d="M156.176 631.364L162.721 637.674L156.984 637.5C156.599 635.439 156.232 633.469 156.176 631.364Z"/>
	<path fill="#EDFFDC" d="M504.753 91.837L512.518 80.4349L520.424 92.1062L524.678 99.474C529.382 108.036 533.104 116.483 536.086 125.799L537.206 129.927C539.299 138.591 541.197 147.489 541.065 156.45L540.618 165.837C540.011 174.079 538.592 182.38 536.368 190.343C536.309 190.556 536.007 191.456 536.06 191.538L535.077 193.903C531.725 203.191 527.671 213.555 521.89 221.625L517.815 227.897L511.929 236.26C509.282 233.562 507.079 230.671 504.981 227.539L501.558 222.309C496.079 213.146 491.343 203.599 488.02 193.432L486.641 189.388C484.474 181.011 483.233 172.526 482.847 163.883L482.976 156.99C483.556 147.258 484.966 138.268 487.237 128.775L488.524 124.058C491.709 115.115 495.465 106.41 500.577 98.3858L504.753 91.837Z"/>
	<path fill="#88F5DE" d="M508.965 194.008L515.505 193.944C515.518 197.139 516.18 203.028 514.474 205.75L514 205.5C513.621 205.582 513.263 205.741 512.888 205.837C511.608 206.164 510.205 205.773 508.929 205.545C509.401 201.781 508.564 197.835 508.965 194.008Z"/>
	<path fill="#EDFFDC" d="M223.102 208.32L224.83 197.87L227.967 200.463L251.752 220.051L258.622 226.853C267.229 235.819 275.487 245.876 281.422 256.851L287.819 268.229L297.758 291.374C300.228 299.474 303.168 308.464 303.053 317.009L303.059 317.337C303.75 320.665 303.486 324.226 303.427 327.608C303.278 336.182 302.17 344.544 301.338 353.054L289.472 346.842L283.271 342.953C264.526 330.641 247.206 312.04 237.03 291.978L234.604 286.95C230.189 277.509 227.426 267.492 224.857 257.427L223.712 252.773C222.516 244.083 221.566 235.703 221.684 226.899C221.766 220.718 222.514 214.471 223.102 208.32Z"/>
	<path fill="#88F5DE" d="M252.886 256.919C255.499 256.876 258.007 256.808 260.592 257.289C260.578 260.627 260.24 264.311 260.585 267.609C257.981 268.371 255.088 269.778 252.45 270.072C252.658 265.863 251.68 260.96 252.886 256.919Z"/>
	<path fill="#EDFFDC" d="M797.166 204.031L801.432 202.159C802.303 204.096 802.298 206.881 802.544 209C804.244 223.675 803.131 239.509 799.61 253.848L798.775 257.099C796.359 264.53 794.234 272.615 790.808 279.622L788.664 284.617L785.168 291.543C781.359 299.247 776.602 306.716 771.2 313.417L767.402 318.14L765.133 320.712C757.65 329.391 749.49 336.962 740.474 344.043L733.66 349.286C730.367 351.617 727.077 353.538 723.434 355.27L722.47 347.752C721.351 338.928 721.003 329.774 721.756 320.905L721.941 317.121L725.619 290.598L727.073 284.838L733.897 266.843L739.493 255.939L741.637 252.759C748.645 242.947 755.443 233.4 764.476 225.301L770.698 220.001C775.856 215.596 781.88 211.925 787.824 208.694L797.166 204.031Z"/>
	<path fill="#88F5DE" d="M767.559 257.497C769.464 257.599 771.746 257.322 773.342 258.372C773.166 260.102 773.315 261.332 772.25 262.735L767.75 263.115C766.66 261.43 766.987 259.45 766.955 257.466L767.559 257.497Z"/>
	<path fill="#EDFFDC" d="M925.694 422.589L932.121 420.279C932.023 428.598 931.6 436.445 930.351 444.686L929.267 449.674L927.19 457.866C925.064 463.496 923.02 470.911 919.755 475.868L915.898 483.873C911.386 492.269 905.303 502.37 898.571 509.236L895.015 513.429C886.975 522.42 878.156 531.09 868.338 538.138C863.327 541.735 858.243 545.281 852.682 547.997C843.787 553.769 833.319 557.848 823.457 561.666L825.235 546.983L826.037 541.938L827.417 534.471C828.396 527.452 831.313 519.764 833.61 513.066L835.449 508.678L849.486 482.855L853.273 477.269L860.597 468.167L867.284 461.043C867.683 460.167 869.393 458.853 870.16 458.077C873.94 454.247 877.904 450.699 882.062 447.284L888.277 442.566L888.282 442.513C898.85 433.407 912.492 426.816 925.694 422.589Z"/>
	<path fill="#EDFFDC" d="M94.0741 445.475C92.7477 436.534 91.6496 428.02 91.4962 418.979C92.3776 418.7 97.4453 421.098 98.5797 421.554C113.231 427.032 128.042 434.748 140.467 444.32L145.011 447.749C148.086 450.022 150.863 452.535 153.67 455.124C154.912 456.268 156.638 457.545 157.645 458.873L162.908 464.175L174.01 478.176L177.708 483.51C183.822 492.871 188.948 502.774 192.871 513.257L200.82 542.235C201.392 544.049 202.034 545.724 202.869 547.434C203.666 548.942 205.345 551.641 205.434 553.338C205.466 553.939 204.921 555.273 204.758 555.886L202.734 563.534L171.142 548.423L156.314 538.462C146.183 531.386 137.204 522.511 128.764 513.548C127.635 512.543 126.609 511.233 125.586 510.109C118.807 501.809 112.76 493.072 107.604 483.669L105.562 479.478C102.244 473.073 100.007 466.027 97.6211 459.233L94.7885 448.966L94.0741 445.475Z"/>
	<path fill="#88F5DE" d="M130.333 448.884L132.599 448.963C133.127 454.138 132.052 459.142 131.75 464.302C129.683 465.628 127.403 465.337 125.054 465.139L124.943 449.317L125.111 449.054L130.333 448.884Z"/>
	<path fill="#EDFFDC" d="M456.73 188.744L461.656 168.916L468.391 167.827C468.876 174.944 469.839 182.07 471.784 188.947L472.955 193.515L477.71 207.069L487.896 227.226C493.682 236.231 499.622 245.291 507.118 252.995C502.407 253.533 497.772 254.071 493.187 255.328L483.758 258.851L477.749 261.988C467.38 268.864 460.289 275.718 453.792 286.387L450.941 292.364C447.678 300.551 445.495 308.759 443.868 317.421L442.854 322.502L442.477 328.838C434.564 329.177 427.463 330.412 419.826 332.367L413.398 334.279L386.849 342.834L381.779 344.854L369.998 350.307L355.013 357.901L334.414 370.389C324.806 376.8 315.885 383.88 307.039 391.291C310.958 379.646 313.315 367.646 315.241 355.538L316.205 349.034L316.558 346.213L317.495 335.677C317.59 331.007 318.201 326.289 317.711 321.637L317.57 319.75C318.897 317.463 323.187 315.963 325.58 314.804L348.801 303.795L353.909 301.133L376.393 287.695L380.968 284.627L412.018 258.61L414.177 256.293L417.624 252.637C425.392 244.621 431.596 235.91 437.984 226.816L441.637 221.056C447.078 212.124 451.213 202.723 455.126 193.053L456.73 188.744Z"/>
	<path fill="#88F5DE" d="M445.5 265L445.348 268.808C444.857 266.48 444.484 259.527 445.75 257.57C447.618 256.833 449.082 257.01 451.006 257.501L451.124 268.25L450.625 268.498L450.375 265.747C449.244 264.93 448.487 264.744 447.25 264.245L446.379 263.799L445.5 265Z"/>
	<path fill="#88F5DE" d="M317.711 321.637L323.165 321.475C323.091 324.278 322.656 327.598 323.067 330.342C322.003 332.278 321.47 333.002 319.235 333.629L318.71 333.75L317.495 335.677C317.59 331.007 318.201 326.289 317.711 321.637Z"/>
	<path fill="#A3F7E3" d="M380.98 321.966L384.65 321.803L387.016 322.022C387.01 327.861 387.943 335.846 386.046 341.25L385.772 342.232L386.849 342.834L381.779 344.854C379.784 341.008 380.828 326.882 380.98 321.966Z"/>
	<path fill="#EDFFDC" d="M551.587 188.637L555.041 167.54L562.965 168.056L567.383 188.947L568.337 192.132L578.592 215.769L584.859 227.03L605.346 252.365L611.108 258.37L643.201 284.346L651.638 289.82L669.635 299.541L675.83 302.416L707.648 314.527L706.873 321.332L707.308 343.364L707.625 348.35L708.255 353.515L708.528 356.311L710.272 365.529L713.273 379.046L715.049 386.681C715.243 387.465 715.772 388.759 715.574 389.538L706.583 382.376L702.288 379.529L675.427 361.91L662.403 354.835L652.94 350.299L642.269 345.278L636.568 342.862L611.079 333.909L605.051 332.1C597.771 329.974 590.137 326.999 582.588 326.237L581.854 322.714L581.159 318.887C579.085 309.171 576.499 299.923 572.664 290.752L570.922 287.398C565.037 276.998 557.896 269.814 548.346 262.805L546.312 261.778L540.881 259.095L529.764 254.951L516.648 252.972C523.995 245.1 529.501 236.094 535.179 227.002L544.701 209.388L550.634 192.464L551.587 188.637Z"/>
	<path fill="#88F5DE" d="M572.519 258.041C574.964 258.044 577.523 257.889 579.949 258.176L579.625 263.903L579.5 261.5L579.031 261.246C576.618 262.376 576.541 264.215 574.508 265.613L573.25 265.245L572.858 266.741C572.256 264.097 572.546 260.783 572.519 258.041Z"/>
	<path fill="#A3F7E3" d="M637.539 321.427L643.623 321.44L643.317 337.346C643.31 339.035 643.716 342.221 643.245 343.75C643.067 344.328 642.594 344.769 642.269 345.278L636.568 342.862L636.931 321.595L637.539 321.427Z"/>
	<path fill="#10B127" d="M516.648 252.972L529.764 254.951L540.881 259.095L546.312 261.778L548.346 262.805C557.896 269.814 565.037 276.998 570.922 287.398L572.664 290.752C576.499 299.923 579.085 309.171 581.159 318.887L581.854 322.714L582.588 326.237C583.259 331.086 583.162 336.065 583.036 340.951L606.407 347.803C612.389 349.803 618.886 351.416 624.57 354.134C641.46 360.305 659.468 369.091 674.23 379.3L681.027 383.407L702.867 398.748L719.537 413.889L724.085 418.368L734.1 428.091L739.87 433.786L749.218 444.062L752.548 448.329L765.732 465.881C768.408 469.471 771.161 473.179 773.28 477.13L776.925 483.453L789.679 507.528L791.922 512.508L799.79 532.892L804.99 548.568L810.611 572.804L811.343 577.074L815.785 606.263L816.294 611.339L817.123 636.858L817.058 641.031L815.269 671.866L814.848 675.799L810.358 702.483L809.793 705.225C808.35 713.467 806.527 722.474 803.473 730.275L800.353 739.792L789.949 765.954L788.689 768.553C787.204 771.523 775.667 795.674 774.366 796.53L770.339 803C766.305 809.318 762.476 815.905 758.038 821.944C749.303 833.835 739.313 844.397 728.755 854.637C725.019 858.261 721.35 862.284 717.348 865.583L714.7 867.75L705.204 875.398L677.628 894.311L670.497 898.227L641.501 912.402L638.099 913.802L612.242 923.597L585.786 930.732C573.531 933.537 560.599 936.219 548.04 937.042L540.624 937.692C521.677 939.604 502.601 938.652 483.644 937.501L476.449 936.757L442.392 931.367L411.177 923.238L385.52 913.245L380.479 910.9L355.625 898.933L347.621 894.599C338.425 889.842 329.826 883.243 321.393 877.278L305.508 864.713L286.813 846.971C274.35 834.088 262.412 819.163 252.861 803.978L249.595 798.52C243.941 789.899 239.562 779.728 235.142 770.427L233.58 767.087L226.213 749.979L222.719 739.55L220.654 732.376L214.528 707.495L213.267 702.251L209.262 675.921L208.756 670.36C207.734 669.186 207.494 643.677 207.484 640.995L207.406 637.167L208.734 611.032L209.191 605.913L214.23 575.648L214.717 572.471L220.828 547.992L223.685 538.387C225.916 529.579 230.008 520.323 233.561 511.974L235.204 508.481L247.681 483.434L251.541 476.803L258.612 466.169L271.978 447.845L273.78 445.385L284.52 432.472L289.253 427.058L297.5 418.34L302.745 413.321L315.786 402.393L321.473 398.229L339.772 384.194L347.285 379.25L353.866 375.571L353.878 375.544C368.727 367.007 383.749 359.502 399.841 353.572L417.791 348.107C425.67 346.047 434.287 343.26 442.451 343.004L442.477 328.838L442.854 322.502L443.868 317.421C445.495 308.759 447.678 300.551 450.941 292.364L453.792 286.387C460.289 275.718 467.38 268.864 477.749 261.988L483.758 258.851L493.187 255.328C497.772 254.071 502.407 253.533 507.118 252.995C510.227 253.027 513.567 253.303 516.648 252.972Z"/>
	<path fill="#89F0F6" d="M266.541 688.578C267.617 687.806 268.559 686.899 269.527 686L270.114 684.25C270.55 683.101 270.865 682.077 271.139 680.874C271.269 681.881 271.277 683.863 271.641 684.75C272.105 685.88 274.07 687.813 274.864 688.773L266.541 688.578Z"/>
	<path fill="#FBF09C" d="M289.737 675.12L290.039 682.617L290.187 683.813C289.672 686.699 290.686 690.981 288.771 693.25C288.688 689.611 287.566 686.565 287.029 683.034C286.44 679.161 287.508 678.152 289.737 675.12Z"/>
	<path fill="#EDFFDC" d="M443.869 709.833L446 710.549C446.563 712 446.343 713.627 446.317 715.158L446.183 724.917L440.939 722.023L443.869 709.833Z"/>
	<path fill="#EDFFDC" d="M587.64 605.764L592.527 588.844C593.842 583.965 594.917 577.838 597.131 573.307L603.209 605.902L587.64 605.764Z"/>
	<path fill="#EDFFDC" d="M418.958 605.752L427.884 578.141L436.883 606.405L438.38 611.169L447.329 635.409L438.798 670.516L437.409 675.944L432.791 693.571C432.003 696.6 430.817 699.905 430.502 703L429.775 705.44L426.766 720.439L419.015 720.493L413.413 720.529L387.519 721.231L381.498 721.489L354.457 722.956L349.041 723.329L322.853 726.795L318.132 727.746L317.781 717.587C317.778 714.503 318.264 711.274 316.825 708.462L321.763 705.214L325.01 703.176L347.932 687.099L354.382 682.035L363.479 674.133L369.578 668.895L380.912 660.078C381.382 659.093 384.61 657.199 385.627 656.441C392.003 651.481 397.5 645.332 402.887 639.347L404.693 637.09L411.858 628.529C415.262 622.951 415.9 616.847 417.617 610.643L418.958 605.752Z"/>
	<path fill="#A3F7E3" d="M385.627 656.441C385.393 658.818 385.116 661.248 385.186 663.638C385.239 665.431 385.967 668.086 385.009 669.572L384.15 669.726L382.03 669.71C382.145 667.126 382.225 662.158 380.912 660.078C381.382 659.093 384.61 657.199 385.627 656.441Z"/>
	<path fill="#88F5DE" d="M380.958 704.774C382.835 704.448 384.331 703.817 386.083 704.75L385.75 720.755L387.519 721.231L381.498 721.489C381.115 720.679 381.257 718.456 381.219 717.496L380.958 704.774Z"/>
	<path fill="#A3F7E3" d="M321.763 705.214L322.061 717.971C322.051 720.99 321.51 724.094 322.853 726.795L318.132 727.746L317.781 717.587C317.778 714.503 318.264 711.274 316.825 708.462L321.763 705.214Z"/>
	<path fill="#EDFFDC" d="M587.038 737.405C588.399 736.516 593.351 732.63 594.631 732.427C597.084 732.037 601.629 733.123 604.27 733.297L666.23 738.305L669.47 738.57L674.508 739.203L701.99 743.088C716.013 746.341 727.414 751.704 735.346 764.275C741.449 773.947 743.55 785.134 742.542 796.408L740.924 803.518C739.599 807.022 738.216 810.859 736.154 814L731.63 820.985C727.703 825.701 723.583 829.498 718.709 833.21C713.395 836.816 708.049 839.628 701.96 841.693C692.487 844.367 684.36 844.831 674.594 844.598L668.526 844.549L654.211 844.435L637.287 844.535L611.586 844.907L607.74 844.929L572.764 845.041L547.367 845.223C546.505 845.316 545.61 845.14 544.75 845.045C543.225 842.09 542.364 838.636 541.352 835.467C540.711 833.583 539.599 831.761 538.688 829.99L533.378 823.033C535.315 821.496 538.362 820.669 540.672 819.73L546.573 816.934L582.808 800.616C583.3 800.147 584.554 799.751 585.23 799.424L593.32 795.702C597.38 793.306 602.083 791.53 606.408 789.637L606.962 789.364L658.414 766.188L669.053 760.115C671.109 758.809 673.099 757.91 675.353 757.018C676.48 756.549 676.12 756.936 676.568 756L673.757 753.117L669.343 748.531L664.522 744.343C648.356 755.865 628.982 763.489 611.11 771.934L589.299 781.765C585.884 783.845 581.896 785.223 578.241 786.858C574.15 788.687 569.775 791.046 565.493 792.315L547.681 800.926L541.559 803.654L523.939 811.699C522.593 812.29 520.261 813.733 518.951 813.867C517.599 814.005 513.605 812.265 512.189 811.796L486.97 803.15L474.4 798.669L449.254 788.236L444.394 785.917L418.62 774.31L411.815 770.989L401.868 765.835C396.076 763.578 390.251 759.737 384.731 756.787L380.393 754.358C371.359 750.009 364.53 748.87 354.514 749.965L351.024 750.806C348.902 752.325 347.695 753.344 347.174 755.969C346.789 757.91 347.07 760.147 348.183 761.82C348.606 762.457 348.66 762.487 349.113 762.996C351.186 764.034 353.097 764.289 355.357 764.577C361.166 764.227 366.234 764.085 371.555 766.8L414.405 788.785L418.79 790.75L432.076 796.807L441.677 801.26L477.335 815.608L483.428 817.78L499.988 823.346C511.184 826.817 523.342 829.429 528.762 841.189L530.324 845.162L513.754 845.012L504.154 844.918L483.543 844.973L483.048 845.048L476.591 845.016L449.676 845.018L440.769 844.918C438.744 845.293 435.955 844.956 433.86 844.966L419.399 845.033L412.949 845.019L405.018 844.934L375.98 844.932L354.473 845.205L348.053 845.153C330.837 845.01 315.918 842.293 302.495 830.68C297.735 827.016 293.131 821.412 289.736 816.492C286.366 811.212 283.922 805.529 282.236 799.513C279.446 790.405 279.846 781.351 282.607 772.344C283.258 770.605 283.818 768.96 284.901 767.438L285.104 766.152C286.92 763.242 288.771 760.576 291.006 757.972C298.08 750.58 306.417 746.181 316.084 743.104L321.792 741.883L348.623 738.213C349.267 737.736 353.931 737.657 355.027 737.545L384.869 736.076L411.137 735.261L427.17 734.293C428.378 734.213 431.256 733.613 432.374 733.886C433.946 734.27 436.605 736.162 437.952 737.122L464.457 752.474C468.781 754.98 473.688 757.417 477.619 760.499L488.51 767.211L508.549 778.281C510.732 778.818 512.42 777.863 514.416 777.057L528.379 769.523L531.393 768.094C533.852 766.362 536.922 765.049 539.594 763.647C539.695 763.328 545.85 760.111 546.666 759.657L587.038 737.405Z"/>
	<path fill="#A3F7E3" d="M316.827 768.306C318.341 768.028 319.694 767.869 321.235 767.894L322.036 768.716C321.969 770.166 321.862 771.197 321.25 772.551C319.93 773.026 319.646 772.931 318.25 772.658C316.978 771.303 316.994 770.059 316.827 768.306Z"/>
	<path fill="#A3F7E3" d="M509.072 832.063C510.377 832.24 510.95 832.41 511.972 833.25C511.932 836.151 511.071 842.069 512.537 844.394L513.754 845.012L504.154 844.918L504.179 844.875C505.623 844.79 506.97 844.687 508.386 844.358C509.444 841.317 508.684 836.579 508.828 833.251L509.072 832.063Z"/>
	<path fill="#A3F7E3" d="M637.389 833.039L640.75 833.032C642.263 834.941 641.554 841.129 641.568 843.786C645.673 843.985 650.164 843.816 654.211 844.435L637.287 844.535C637.939 840.942 637.457 836.711 637.389 833.039Z"/>
	<path fill="#A3F7E3" d="M444.995 832.972L450.018 832.992C449.84 836.449 448.879 841.796 449.676 845.018L440.769 844.918C442.319 844.821 443.857 844.793 445.36 844.369C446.17 841.165 445.312 836.314 444.995 832.972Z"/>
	<path fill="#A3F7E3" d="M380.393 754.358C382.243 751.041 381.21 743.809 381.387 739.75C382.37 738.227 383.024 738.403 384.738 737.978L384.731 756.787L380.393 754.358Z"/>
	<path fill="#A3F7E3" d="M380.971 832.461C382.489 832.482 384.05 832.334 385.49 832.842L385.468 844.196C391.754 844.432 398.873 843.919 405.018 844.934L375.98 844.932L379.75 844.522C381.644 842.66 379.942 835.99 380.764 833.126L380.971 832.461Z"/>
	<path fill="#A3F7E3" d="M573.008 832.901L578.006 832.964L578.096 844.584L605.083 844.478L607.74 844.929L572.764 845.041L573.069 834.488L573.008 832.901Z"/>
	<path fill="#A3F7E3" d="M381.472 797.004L381.549 777L382.25 776.372C383.861 776.774 384.132 776.905 385.331 778.05L385.515 797.02L381.472 797.004Z"/>
	<path fill="#A3F7E3" d="M574.046 773.423L578.964 773.574L579.014 785.495L588.842 781.517L589.299 781.765C585.884 783.845 581.896 785.223 578.241 786.858C574.15 788.687 569.775 791.046 565.493 792.315C567.677 789.929 571.067 788.633 573.913 787.179C574.595 785.641 574 783.109 573.931 781.411C573.822 778.759 573.958 776.077 574.046 773.423Z"/>
	<path fill="#A3F7E3" d="M444.925 768.361C446.85 767.988 448.372 767.94 450.306 768.242C450.399 773.945 451.654 783.163 449.254 788.236L444.394 785.917C445.793 780.905 444.89 773.623 444.925 768.361Z"/>
	<path fill="#A3F7E3" d="M508.549 778.281C510.732 778.818 512.42 777.863 514.416 777.057C512.803 783.431 514.566 791.64 514.482 798.256C512.549 798.007 510.606 798.142 508.663 798.203L508.549 778.281Z"/>
	<path fill="#A3F7E3" d="M316.084 743.104L321.792 741.883L321.984 766.136L316.983 766.036L316.855 751.5C316.82 748.842 317.167 745.553 316.084 743.104Z"/>
	<path fill="#EDFFDC" d="M417.791 348.107C425.67 346.047 434.287 343.26 442.451 343.004C442.533 345.534 442.561 347.949 443.258 350.405L444.773 355.658C447.772 364.292 452.128 372.181 456.302 380.273C458.897 385.305 461.092 390.415 464.114 395.234C467.271 400.266 473.917 406.523 473.917 406.526C474.229 408.192 472.579 412.564 472.106 414.293L469.014 420.664C467.473 423.152 465.924 425.446 463.411 427.083C460.586 428.924 456.996 430.11 453.872 431.416L436.376 438.54L418.379 446.523L411.377 449.634L387.076 465.859L381.358 471.125L374.567 479.191L371.38 483.938C367.278 492.286 364.739 500.516 363.721 509.768L363.42 512.492L363.583 524.5C363.897 531.548 364.598 535.855 362.004 542.709L359.891 547.442L354.677 559.975L350.919 573.929L350.139 577.541C349.119 582.672 348.488 587.782 347.893 592.971C347.569 595.794 347.552 599.414 346.2 601.97C345.231 603.802 343.007 605.825 341.329 607.021L335.559 612.122L307.568 639.152L304.661 642.041L290.224 655.317L286.231 658.705C282.197 662.476 278.244 666.291 275.16 670.904L272.914 675.395L271.139 680.874C270.865 682.077 270.55 683.101 270.114 684.25L269.527 686C268.559 686.899 267.617 687.806 266.541 688.578C255.047 688.435 242.341 686.778 233.424 695.75C231.162 698.027 229.673 700.451 229.187 703.636C232.989 713.464 241.582 722.827 251.303 727.121C261.426 731.594 273.733 731.108 284.058 727.553L290.066 724.817L316.825 708.462C318.264 711.274 317.778 714.503 317.781 717.587L318.132 727.746C309.895 729.5 302.306 732.48 295.058 736.783L289.451 740.409C279.519 748.208 273.202 756.318 268.803 768.196L268.292 769.578C265.821 779.278 265.194 787.713 266.796 797.647L268.301 803.905L252.861 803.978L249.595 798.52C243.941 789.899 239.562 779.728 235.142 770.427L233.58 767.087L226.213 749.979L222.719 739.55L220.654 732.376L214.528 707.495L213.267 702.251L209.262 675.921L208.756 670.36C207.734 669.186 207.494 643.677 207.484 640.995L207.406 637.167L208.734 611.032L209.191 605.913L214.23 575.648L214.717 572.471L220.828 547.992L223.685 538.387C225.916 529.579 230.008 520.323 233.561 511.974L235.204 508.481L247.681 483.434L251.541 476.803L258.612 466.169L271.978 447.845L273.78 445.385L284.52 432.472L289.253 427.058L297.5 418.34L302.745 413.321L315.786 402.393L321.473 398.229L339.772 384.194L347.285 379.25L353.866 375.571L353.878 375.544C368.727 367.007 383.749 359.502 399.841 353.572L417.791 348.107Z"/>
	<path fill="#A3F7E3" d="M316.77 513.122C318.674 513.059 320.662 512.873 322.56 513.041L322.486 529.016C320.576 529.486 318.759 529.982 316.902 529.091C317.637 524.274 316.815 518.093 316.77 513.122Z"/>
	<path fill="#FBF09C" d="M266.796 797.647L268.301 803.905L252.861 803.978L249.595 798.52C250.96 797.882 252.302 798.262 253.75 798.305C256.815 798.395 264.506 799.293 266.796 797.647Z"/>
	<path fill="#88F5DE" d="M380.378 449.214C382.229 449.01 383.682 448.975 385.518 449.314C385.564 454.253 384.878 460.559 386.259 465.267L387.076 465.859L381.358 471.125L380.378 449.214Z"/>
	<path fill="#A3F7E3" d="M444.58 385.884L449.737 385.989L450.677 387.082L450.567 406.702C450.474 408.457 450.678 410.976 449.835 412.536L446.557 412.561C445.493 411.58 445.649 410.802 445.481 409.392C444.553 401.613 445.625 393.625 444.58 385.884Z"/>
	<path fill="#A3F7E3" d="M316.812 448.928C318.793 448.607 320.477 448.736 322.459 448.995L322.256 467.434C322.187 470.635 322.389 474.41 321.649 477.493L317.294 477.52L316.812 448.928Z"/>
	<path fill="#A3F7E3" d="M252.528 740.263C254.076 740.35 255.673 740.545 257.213 740.314C258.948 745.592 258.08 753.573 258.211 759.22C258.249 760.841 258.794 763.903 258.287 765.35C258.106 765.867 257.711 766.083 257.302 766.458C256.388 766.93 255.928 767.178 255.399 768.074L255.239 768.688C254.188 769.089 253.881 769.015 252.75 768.857C251.658 765.113 252.046 760.897 252.093 757.033L252.528 740.263Z"/>
	<path fill="#A3F7E3" d="M380.461 385.433L386.604 385.417C386.026 390.121 387.728 410.219 385.25 412.98C383.408 413.007 382.426 413.328 380.892 412.25L380.461 385.433Z"/>
	<path fill="#A3F7E3" d="M316.469 576.975C318.526 576.888 320.601 576.715 322.654 576.921L322.183 604.068C320.996 605.136 320.364 605.032 318.812 605.249L317.131 605.66L316.469 576.975Z"/>
	<path fill="#EDFFDC" d="M583.036 340.951L606.407 347.803C612.389 349.803 618.886 351.416 624.57 354.134C641.46 360.305 659.468 369.091 674.23 379.3L681.027 383.407L702.867 398.748L719.537 413.889L724.085 418.368L734.1 428.091L739.87 433.786L749.218 444.062L752.548 448.329L765.732 465.881C768.408 469.471 771.161 473.179 773.28 477.13L776.925 483.453L789.679 507.528L791.922 512.508L799.79 532.892L804.99 548.568L810.611 572.804L811.343 577.074L815.785 606.263L816.294 611.339L817.123 636.858L817.058 641.031L815.269 671.866L814.848 675.799L810.358 702.483L809.793 705.225C808.35 713.467 806.527 722.474 803.473 730.275L800.353 739.792L789.949 765.954L788.689 768.553C787.204 771.523 775.667 795.674 774.366 796.53L770.339 803C766.305 809.318 762.476 815.905 758.038 821.944C749.303 833.835 739.313 844.397 728.755 854.637C725.019 858.261 721.35 862.284 717.348 865.583L714.7 867.75L705.204 875.398L677.628 894.311L670.497 898.227L641.501 912.402L638.099 913.802L612.242 923.597L585.786 930.732C573.531 933.537 560.599 936.219 548.04 937.042L540.624 937.692C521.677 939.604 502.601 938.652 483.644 937.501L476.449 936.757L442.392 931.367L411.177 923.238L385.52 913.245L380.479 910.9L355.625 898.933L347.621 894.599C338.425 889.842 329.826 883.243 321.393 877.278L305.508 864.713L286.813 846.971C274.35 834.088 262.412 819.163 252.861 803.978L268.301 803.905C274.775 824.591 288.846 841.759 308.137 851.85L316.706 855.586L324.387 857.694L338.726 859.151L681.786 859.15C689.04 859.042 696.091 858.449 703.215 857.073C713.496 854.019 721.829 849.264 730.21 842.586L734.595 838.832C745.925 828.957 751.734 816.431 756.008 802.334L757.227 796.104C757.68 790.626 758.021 785.189 757.013 779.75C753.981 763.377 746.016 749.439 732.208 739.963C722.453 733.521 712.236 729.985 700.961 727.259L674.838 723.982L668.936 723.456L638.207 721.117L611.055 719.475L605.614 719.176L594.376 718.64C592.645 714.998 592.455 709.109 591.896 705.069L591.8 704.442L586.845 675.141L586.088 670.078L580.733 640.29L580.235 636.626C581.366 634.495 581.755 631.287 582.304 628.926L586.471 610.698L587.64 605.764L603.209 605.902L604.166 610.686L606.901 620.989C608.492 624.576 610.298 627.872 612.547 631.092L620.509 639.359L642.231 659.266L653.421 668.954L660.07 674.228L669.487 680.476L674.759 683.952L696.884 699.734L700.947 702.782L701.984 703.435C712.479 711.519 723.455 720.611 735.351 726.475L739.83 728.317C742.436 729.153 745.276 730.218 748 730.438C755.3 731.026 763.008 729.052 770.265 728.329C776.459 727.336 781.856 726.155 786.116 721.038C790.068 716.291 790.308 711.363 789.835 705.525L788.636 701.496C787.175 698.431 785.345 695.748 782.668 693.609C775.618 687.976 766.609 687.732 758.033 688.823L757.43 688.908L750.659 675.645L748.595 672.257L738.958 659.591L733.669 654.122L720.198 640.919L717.613 638.577L687.906 612.273C685.881 611.351 683.211 608.332 681.442 606.806L674.399 601.507L674.228 582.683L674.172 582.106L672.857 573.694L670.057 561.732L665.656 548.499L663.905 543.177C662.909 539.308 661.858 535.407 661.422 531.427C660.766 525.436 661.064 519.151 660.923 513.105L660.456 508.586C659.638 499.379 656.544 491.383 652.399 483.21L650.082 479.411C647.212 475.176 644.18 471.42 640.574 467.787L637.397 464.891C629.917 458.972 622.237 454.419 613.43 450.755L602.795 446.411L583.936 438.434C576.775 435.457 567.262 432.546 561.141 427.831C558.32 425.657 556.26 422.903 554.506 419.844L553.025 416.243C552.55 414.617 550.388 407.916 550.801 406.74C551.073 405.97 552.543 404.485 553.085 403.779L559.519 395.098C561.801 391.732 563.734 388.101 565.596 384.489L567.725 380.219C568.516 376.931 571.318 372.843 572.906 369.716L579.527 355.09L581.124 350.136L583.036 340.951Z"/>
	<path fill="#88F5DE" d="M765.966 512.891L770.706 512.944L770.584 525.304C768.92 526.942 768.066 526.829 765.899 527.386L765.966 512.891Z"/>
	<path fill="#A3F7E3" d="M637.515 896.535L640.972 896.666C642.539 898.876 641.583 909.233 641.501 912.402L638.099 913.802C636.365 909.12 637.12 901.786 637.332 896.811L637.515 896.535Z"/>
	<path fill="#A3F7E3" d="M380.894 896.519L385.491 896.536C386.778 901.097 386.041 908.481 385.52 913.245L380.479 910.9L380.894 896.519Z"/>
	<path fill="#FBF09C" d="M587.64 605.764L603.209 605.902L604.166 610.686L586.471 610.698L587.64 605.764Z"/>
	<path fill="#88F5DE" d="M637.348 448.88C639.024 448.464 640.403 448.303 642.079 448.914L641.962 459.75C641.937 462.555 642.301 465.386 640.574 467.787L637.397 464.891C638.327 460.396 637.429 453.562 637.348 448.88Z"/>
	<path fill="#A3F7E3" d="M572.902 385.431L578.122 385.435L577.776 412.311C576.552 413.233 574.894 412.935 573.433 412.935C572.719 410.648 573.056 407.153 572.993 404.706C572.833 398.411 572.207 391.68 572.902 385.431Z"/>
	<path fill="#EDFFDC" d="M481.211 427.895C483.134 424.612 484.72 421.362 485.871 417.725C487.385 412.941 487.495 407.912 490.843 404C490.111 403.022 490.586 403.341 489.823 403.067C486.832 401.991 484.769 399.123 482.79 396.744C473.183 385.193 467.459 371.713 461.384 358.13C459.475 353.863 457.696 349.609 456.837 344.988C455.077 335.525 456.862 325.893 458.86 316.62C460.051 311.091 461.178 305.586 463.199 300.285C468.05 287.562 478.202 277.63 490.548 272.143C503.309 266.472 519.259 266.268 532.238 271.383C544.57 276.243 555.304 286.26 560.481 298.5C562.295 302.79 563.327 307.431 564.515 311.922C567.724 324.05 571.233 338.017 566.281 350.174C564.361 354.887 561.75 359.405 559.538 364C553.256 377.051 547.29 392.34 536.497 402.374L533.25 402.862L532.875 403.5C533.84 404.553 535.101 405.765 535.768 407.018C536.916 409.176 537.235 412.638 537.836 415.041C539.118 420.159 541.292 424.715 544.083 429.177L549.12 435.475C552.583 438.568 556.055 441.277 560.12 443.539L567.662 447.149L572.18 449.202L581.047 453.037L606.174 463.037L611.13 465.182C618.117 468.546 624.282 471.904 630.063 477.097L635.032 482.487C641.31 490.247 645.283 499.478 646.512 509.437L646.703 510.032C647.893 518.829 646.798 527.731 648.329 536.5L648.554 538.162L649.325 541.803L650.81 547.156L656.776 565.791C657.436 568.064 658.605 571.074 658.506 573.425C662.283 583.503 659.698 595.931 660.297 606.496C660.752 608.397 661.407 609.183 662.774 610.557L670.246 615.819L674.841 619.709L693.698 635.804L697.437 639.238L703.288 645.104L707.139 648.877L727.977 669.35L728.739 670.356L733.081 675.347L736.42 680.196C737.827 682.605 740.88 686.773 741.321 689.485C743.728 694.239 745.708 699.806 749.264 703.808C755.269 703.19 761.561 702.863 767.593 703.133C770.103 703.246 772.683 703.343 774.75 704.95C776.16 706.046 776.904 707.444 776.958 709.25C776.985 710.165 776.876 711.042 776.202 711.704C773.549 714.312 764.846 714.104 761.04 714.696L749.419 716.888L740.81 712.761L733.953 708.524C731.703 707.262 729.726 705.801 727.689 704.234C725.779 703.246 723.955 701.501 722.234 700.186L712.519 692.927L688.824 676.243C687.544 676.007 684.238 673.023 682.997 672.137L674.176 665.905L669.573 662.777C660.039 656.893 651.406 648.661 643.223 641.039L640.117 638.166L625.957 624.483C624.382 622.886 622.053 621.039 620.795 619.228C619.733 617.7 619.212 613.15 618.745 611.175L617.756 606.508C617.529 603.384 616.603 599.979 615.964 596.899L611.476 577.061L610.378 573.097L606.521 558.644L603.165 547.093L602.324 543.551L596.271 524.018C595.839 530.209 594.664 535.609 592.798 541.514L590.982 547.966L582.941 573.005L581.307 577.647L578.179 587.986L574.054 603.116L573.34 606.348L572.153 611.664C570.092 619.893 566.66 629.349 566.996 637.839L567.198 640.666L572.034 669.749L572.921 675.429C573.587 679.658 575.183 685.275 574.967 689.447L581.004 724.574L573.932 728.207L561.815 734.68L555.015 738.661L545.985 743.854L542.072 745.954L518.563 759.131C516.101 760.449 513.1 762.486 510.438 763.18L504.527 759.877L481.654 745.627L463.244 734.885L448.484 726.273L446.183 724.917L446.317 715.158C446.343 713.627 446.563 712 446 710.549L443.869 709.833L445.168 704.63L446.098 700.748L452.169 675.123L453.605 669.349L460.779 640.451L461.365 636.826C460.794 628.811 456.403 619.397 453.582 611.881L452.076 607.584L448.347 596.855L445.665 588.634L442.475 578.225L441.12 573.903L432.576 549.087L430.152 542.864L427.512 534.996L424.519 541.9L416.213 564.214L413.383 573.533L412.255 577.199L404.275 606.108L402.857 611.691C402.259 614.12 401.797 617.778 400.511 619.894C399.143 622.146 396.921 624.163 395.159 626.139C391.185 630.595 387.284 635.105 382.931 639.199L380.164 641.667L354.19 663.003L350.271 666.265L343.899 671.44L338.355 675.884C328.649 683.46 318.193 690.124 307.855 696.799C303.204 699.802 298.214 703.545 293.194 705.844L293.118 705.952C287.096 710.429 277.045 715.758 269.454 716.086C259.017 716.537 253.096 710.859 245.867 704.227C252.25 700.822 264.174 703.293 271.25 703.807C273.574 703.976 276.455 704.329 278.719 703.691L279.25 703.523C281.503 702.834 283.217 701.648 285.133 700.33L285.588 699.752C287.245 697.682 287.941 695.719 288.771 693.25C290.686 690.981 289.672 686.699 290.187 683.813L290.039 682.617L289.737 675.12L296.475 668.872L315.402 651.557C315.856 650.267 320.477 646.641 321.697 645.467L328.363 638.607L330.321 636.528L348.769 619.435L353.906 614.846L357.216 610.819C358.234 609.248 358.866 607.353 359.581 605.626L365.187 576.101L365.703 573.098L375.379 547.366L377.224 541.189C379.14 530.714 376.754 520.044 378.374 509.631L378.236 508.864C380.854 498.494 383.515 490.843 390.628 482.631L396.927 476.808C401.513 472.58 407.027 469.275 412.338 466.052L418.401 463.039L443.952 451.068C445.78 449.945 448.15 449.233 450.147 448.409L454.053 446.81L459.865 444.607C465.513 441.827 470.409 438.971 475.362 435.061L475.697 434.726C477.894 432.612 479.495 430.402 481.211 427.895Z"/>
	<path fill="#A3F7E3" d="M443.952 451.068C445.78 449.945 448.15 449.233 450.147 448.409C450.125 451.531 449.849 454.898 450.186 457.989L449.75 459.823C448.611 460.511 447.342 460.187 446.08 460.059L444.962 458.895L444.978 458.552C444.994 456.295 445.505 452.667 443.952 451.068Z"/>
	<path fill="#A3F7E3" d="M446.291 577.832L448 576.566L449.405 577.28L449.642 587.804C449.711 590.799 450.308 593.21 448.816 595.936L448.528 596.513L448.347 596.855L445.665 588.634L446.776 587.384L446.291 577.832Z"/>
	<path fill="#A3F7E3" d="M445.168 704.63L446 705.464L449.973 705.442L449.562 716.279C449.509 719.659 449.746 723.076 448.484 726.273L446.183 724.917L446.317 715.158C446.343 713.627 446.563 712 446 710.549L443.869 709.833L445.168 704.63Z"/>
	<path fill="#89F0F6" d="M574.399 577.218L577.022 577.576C576.745 580.829 576.49 583.954 576.75 587.219C577.669 587.961 577.178 587.734 578.179 587.986L574.054 603.116C572.431 595.245 573.441 586.21 573.25 578.144L574.399 577.218Z"/>
	<path fill="#A3F7E3" d="M638.515 513.016L641.106 512.958C642.087 518.022 641.501 523.877 641.105 529.027C640.898 531.725 639.231 536.964 640.755 539.25L640.503 540.003L639.837 540.078C638.903 539.169 638.749 538.245 638.712 536.971C638.666 535.347 638.734 534.316 638.001 532.842C637.75 526.516 637.373 519.819 637.979 513.519L638.515 513.016Z"/>
	<path fill="#A3F7E3" d="M382.003 512.944C383.541 512.988 385.159 512.934 386.669 513.214C386.576 520.747 387.101 528.929 385.755 536.25L385.877 537.5L385.842 540.603C384.955 540.329 384.351 540.149 383.572 539.625C383.233 538.711 383.271 539.074 383.273 538.187C383.281 535.057 382.049 532.783 381.628 529.75C380.885 524.39 381.476 518.32 382.003 512.944Z"/>
	<path fill="#A3F7E3" d="M509.087 577.213C510.852 577.066 512.307 577.091 514.057 577.381C514.004 581.736 514.457 602.595 512.739 604.772L511.983 605.223L509.787 605.661L509.087 577.213Z"/>
	<path fill="#A3F7E3" d="M573.436 512.905C575.641 512.173 575.916 512.184 578.156 512.815C578.67 516.817 578.785 538.538 577.327 540.496L576.878 541.044L573.915 541.221C573.315 538.471 573.477 535.206 573.346 532.366C573.069 526.367 572.086 518.747 573.436 512.905Z"/>
	<path fill="#A3F7E3" d="M508.44 705.327L514.503 705.4C514.455 710.872 515.355 728.84 512.613 732.475L509.159 732.609L508.44 705.327Z"/>
	<path fill="#A3F7E3" d="M508.383 641.034C510.276 640.649 511.671 640.403 513.582 640.771C514.513 649.625 514.025 658.851 513.797 667.75C513.175 668.404 512.943 668.683 512.082 669.017C510.642 668.982 510.222 669.133 509.041 668.25L508.383 641.034Z"/>
	<path fill="#A3F7E3" d="M508.808 449.426L514.629 449.42L514.412 470.246C514.376 472.34 514.74 475.75 513.701 477.558L509.316 477.59C508.168 468.545 508.79 458.57 508.808 449.426Z"/>
	<path fill="#A3F7E3" d="M508.611 513.03L514.24 513.013L513.745 539.5C513.118 540.157 512.617 540.689 511.685 540.891C510.596 541.127 510.265 541.356 509.298 540.75C507.792 532.133 508.294 521.774 508.611 513.03Z"/>
	<path fill="#A3F7E3" d="M380.804 577.138C382.792 577.014 384.636 576.894 386.611 577.193L386.52 595.958C386.477 599.02 386.844 602.837 385.786 605.712C384.312 605.505 382.818 605.642 381.336 605.704L380.804 577.138Z"/>
	<path fill="#A3F7E3" d="M572.18 449.202L581.047 453.037C579.884 454.109 578.989 454.583 578.735 456.25C578.493 457.841 578.881 460.01 578.934 461.642C579.093 466.543 579.43 472.194 578.217 476.954L578.035 477.699C576.442 477.529 574.771 477.677 573.167 477.726C572.966 468.305 573.397 458.546 572.18 449.202Z"/>
</svg>
